<?xml version="1.0" encoding="utf-8"?>
<!-- Generator: Adobe Illustrator 27.5.0, SVG Export Plug-In . SVG Version: 6.00 Build 0)  -->
<svg version="1.1" id="Ebene_1" xmlns="http://www.w3.org/2000/svg" xmlns:xlink="http://www.w3.org/1999/xlink" x="0px" y="0px"
	 viewBox="0 0 260 260" style="enable-background:new 0 0 260 260;" xml:space="preserve">
<path d="M111.5,126.5c-1.9,0-3.5,1.5-3.5,3.5s1.5,3.5,3.5,3.5s3.5-1.5,3.5-3.5S113.4,126.5,111.5,126.5z"/>
<g>
	<path d="M218.5,41.5h-79.9v54.3c-3.4,2.6-5.7,6.7-5.7,11.3v5.7c0,7,3.6,13.1,9.1,16.7c-6.1,2.9-11,8.1-13.3,14.7H119
		c-2-4.6-5.2-8.5-9.1-11.4h17.2V41.5H47.2v91.4H70c-3.9,2.9-7,6.8-9,11.4c-4.9,4.3-8.1,10.7-8.1,17.9c0,3.7,0.8,7.3,2.5,10.6
		l1.6,3.1c1.5,2.9,4.2,4.9,7.4,5.4v3.6c-13,2.7-22.8,14.2-22.8,28v5.7h177v-5.7c0-13.8-9.8-25.3-22.8-28v-3.5
		c3.2-0.5,5.9-2.4,7.4-5.4l1.6-3.1c1.7-3.3,2.5-6.9,2.5-10.9c0-6.2-2.4-12.1-6.8-16.5s-10.3-6.8-16.5-6.8h0h-9.6
		c-1.5-2.2-3.2-4.1-5.2-5.7h49.6V41.5z M138.6,112.9v-5.7c0-4.7,3.8-8.6,8.6-8.6h20v14.3c0,7.9-6.4,14.3-14.3,14.3
		S138.6,120.7,138.6,112.9z M167.1,92.9h-11.4V58.6h45.7v57.1h-28.8c0.1-0.9,0.2-1.9,0.2-2.9V98.6C172.8,95.4,170.3,92.9,167.1,92.9
		z M144.3,179.1c-3.3,1.2-5.7,4.3-5.7,8v2.9h5.7v-2.9c0-1.6,1.3-2.9,2.9-2.9s2.9,1.3,2.9,2.9c0,4.7-3.8,8.6-8.6,8.6
		c-4.7,0-8.6-3.8-8.6-8.6v-20.4c0-1.9-0.5-3.9-1.5-5.5c0.9-1.6,1.5-3.5,1.5-5.5h-5.7c0,3.1-2.6,5.7-5.7,5.7h-5.7
		c-3.1,0-5.7-2.6-5.7-5.7c0-1.5,0.6-3,1.7-4c1.1-1.1,2.5-1.7,4-1.7H130c7.9,0,14.3,6.4,14.3,14.3V179.1z M124.3,184.2
		c-4.7,0-8.6-3.8-8.6-8.6v-8.6h0h5.7c2,0,3.9-0.6,5.6-1.5c0.1,0.4,0.1,0.7,0.1,1.1v17.5H124.3z M110,83.1c-1.7-1-3.6-1.6-5.7-1.6
		h-7.4L77.8,62.3l-4,4l15.5,15.5c-2.4,0.4-4.6,1.2-6.7,2.3l-4.7-4.7l-4,4l4,4c-0.3,0.3-0.6,0.5-0.9,0.8c-4.4,4.4-6.8,10.3-6.8,16.8
		c0,3.7,0.8,7.3,2.5,10.6l0,0h-8.2V58.6H110V83.1z M75.8,104.8c0-4.7,1.8-9.1,5.2-12.5c3.3-3.3,7.8-5.2,12.5-5.2h0h10.9
		c3.1,0,5.7,2.6,5.7,5.7c0,3.1-2.6,5.7-5.7,5.7h-5.7c-6.3,0-11.4,5.1-11.4,11.4v4.4c0,2.3-1.9,4.2-4.2,4.2c-1.6,0-3-0.9-3.8-2.3
		l-1.6-3.1C76.4,110.6,75.8,107.9,75.8,104.8L75.8,104.8z M87.2,123.3c3.4-1.6,5.7-5,5.7-8.9V110c0-3.1,2.6-5.7,5.7-5.7h5.7v8.6
		c0,4.7-3.8,8.6-8.6,8.6h-2.9v5.7h-5.7V123.3z M52.9,47.2h68.5v79.9H98.6v-0.3c6.5-1.3,11.4-7.1,11.4-14v-10.2
		c3.4-2,5.7-5.6,5.7-9.8v-40H58.6v68.5H76c1.5,1.5,3.4,2.4,5.4,2.7v3H52.9L52.9,47.2z M87.2,132.9l5.7,0v0c8.4,0,16,4.6,20,11.8
		c-2,0.5-3.8,1.5-5.2,2.9c-2.2,2.2-3.3,5-3.3,8.1c0,4.2,2.3,7.8,5.7,9.8v10.2c0,4.5,2.1,8.5,5.4,11.1c-6.1,2.8-11.1,7.6-14,13.6
		c-3.8-7.9-11.2-13.8-20-15.6V184c6.5-1.3,11.4-7.1,11.4-14v-10.2c3.4-2,5.7-5.6,5.7-9.8c0-6.3-5.1-11.4-11.4-11.4H76.3
		c-1.6,0-3.2,0.2-4.7,0.5C75.7,135.1,81.2,132.9,87.2,132.9z M62.1,173.4l-1.6-3.1c-1.3-2.5-1.9-5.2-1.9-8.3
		c0-9.7,7.9-17.6,17.6-17.6l10.9,0c3.1,0,5.7,2.6,5.7,5.7c0,3.1-2.6,5.7-5.7,5.7h-5.7c-6.3,0-11.4,5.1-11.4,11.4v4.4
		c0,2.3-1.9,4.2-4.2,4.2C64.2,175.7,62.8,174.8,62.1,173.4z M70,180.4c3.4-1.6,5.7-5,5.7-8.9v-4.4c0-3.1,2.6-5.7,5.7-5.7h5.7v8.6
		c0,4.7-3.8,8.6-8.6,8.6h-2.9v5.7H70V180.4z M47.2,212.8c0-12.6,10.2-22.8,22.8-22.8h5.7c12.6,0,22.8,10.2,22.8,22.8H47.2z
		 M104.3,212.8c0-12.6,10.2-22.8,22.8-22.8h0.3c1.3,6.5,7.1,11.4,14,11.4c3.4,0,6.5-1.2,8.9-3.2c3.5,4.1,5.3,9.2,5.3,14.7H104.3z
		 M212.8,212.8h-51.4c0-12.6,10.2-22.8,22.8-22.8h5.7C202.5,190,212.8,200.2,212.8,212.8z M184.2,184.2l0-5.7h-2.9
		c-4.7,0-8.6-3.8-8.6-8.6v-8.6h0h5.7c3.1,0,5.7,2.6,5.7,5.7v4.4c0,4,2.3,7.4,5.7,8.9v3.8H184.2z M183.7,144.3
		c4.7,0,9.1,1.8,12.5,5.2c3.3,3.3,5.2,7.8,5.2,12.7c0,2.8-0.6,5.6-1.9,8.1l-1.6,3.1c-0.7,1.4-2.2,2.3-3.8,2.3
		c-2.3,0-4.2-1.9-4.2-4.2v-4.4c0-6.3-5.1-11.4-11.4-11.4h-5.7c-3.2,0-5.7-2.6-5.7-5.7l0-5.7H183.7z M166.8,138.6
		c-3,0.1-5.4,2.6-5.4,5.7l0,5.7c0,4.2,2.3,7.8,5.7,9.8V170c0,6.9,4.9,12.7,11.4,14v0.9c-8.8,1.8-16.2,7.7-20,15.6
		c-1.2-2.4-2.7-4.7-4.5-6.8c1-2,1.7-4.2,1.7-6.6c0-3.7-2.4-6.9-5.7-8v-14.8c0-9.5-6.6-17.4-15.4-19.4c3.1-7.2,10.3-12,18.3-12
		C158.1,132.9,163.1,135,166.8,138.6L166.8,138.6z M212.8,127.1h-46c1.7-1.6,3-3.6,4.1-5.7h36.2V52.9H150v40h-2.9
		c-1,0-1.9,0.1-2.9,0.3v-46h68.5V127.1z"/>
	<path d="M182.2,66.4l4-4l11.4,11.4l-4,4L182.2,66.4z"/>
	<path d="M165.1,83.5l4-4l11.4,11.4l-4,4L165.1,83.5z"/>
	<path d="M165.1,66.4l4-4l28.5,28.5l-4,4L165.1,66.4z"/>
	<path d="M90.9,66.4l4-4l11.4,11.4l-4,4L90.9,66.4z"/>
</g>
</svg>
