<?xml version="1.0" encoding="utf-8"?>
<!-- Generator: Adobe Illustrator 26.3.1, SVG Export Plug-In . SVG Version: 6.00 Build 0)  -->
<svg version="1.1" id="Layer_1" xmlns="http://www.w3.org/2000/svg" xmlns:xlink="http://www.w3.org/1999/xlink" x="0px" y="0px"
	 viewBox="0 0 268 84" style="enable-background:new 0 0 268 84;" xml:space="preserve">
<style type="text/css">
	.st0{fill:#A0884B;}
	.st1{fill:#8E151F;}
</style>
<path class="st0" d="M144.9,69l0.4,0.1c1,0.1,1.2,0.2,1.2,2.4v4.8c0,4.6,2.1,6.1,6,6.1c3.6,0,5.8-1.8,5.8-6v-2.6
	c-0.1-1.3,0-2.7,0.3-4c0.2-0.3,0.6-0.4,1-0.5l0.5-0.1c0.1-0.1,0.1-0.4,0-0.5c-0.8,0-1.4,0.1-2.4,0.1s-1.7,0-2.5-0.1
	c-0.2,0.1-0.2,0.4,0,0.6l0.4,0.1c0.4,0,0.8,0.2,1.1,0.5c0.4,0.6,0.4,2.5,0.4,4v2.7c0,3-1.1,5-4.1,5c-3.1,0-4-2.2-4-5v-4.8
	c0-2.2,0.2-2.2,1.2-2.4l0.6-0.1c0.1-0.2,0.1-0.4-0.1-0.5c0,0,0,0,0,0c-1,0-2,0.1-3,0.1s-2,0-2.9-0.1c-0.1,0.1-0.2,0.4,0,0.5
	c0,0,0,0,0,0L144.9,69z M192.2,75.4c0.2,0.1,0.2,0.3,0.1,0.5c0,0,0,0.1-0.1,0.1l-0.4,0.1c-0.8,0.1-1,0.3-1,1.5v2.2
	c0,0.7,0.1,1.2,0.5,1.4c0.1,0.1,0.1,0.2,0,0.3c-0.4,0-0.7,0.1-1.1,0.2c-1.4,0.3-2.9,0.5-4.4,0.6c-6.3,0-8.6-3.4-8.6-6.9
	c0-3.2,2-7.2,8.8-7.2c1,0,2,0.1,3,0.3c0.5,0.1,0.9,0.2,1.4,0.2c0,0.6,0.2,1.7,0.3,3.2c-0.2,0.2-0.5,0.2-0.7,0c-0.5-2-2.1-3-4.3-3
	c-3.8,0-5.6,2.6-5.6,6c0,4.3,2.6,6.4,5.8,6.4c2.1,0,2.2-0.5,2.2-1.8v-1.6c0-1.4,0-1.6-1.5-1.8l-0.8-0.1c-0.2-0.1-0.2-0.4,0-0.6
	c0,0,0,0,0,0c0.9,0,2,0.1,3.5,0.1C190.4,75.5,191.2,75.5,192.2,75.4L192.2,75.4z M89.7,71.4c0-2.2,0.2-2.2,1.3-2.3l0.4-0.1
	c0.2-0.2,0.2-0.4,0-0.6c-0.9,0-1.9,0.1-2.9,0.1s-2,0-3-0.1c-0.2,0.2-0.2,0.4,0,0.6c0,0,0,0,0,0l0.5,0.1c1,0.1,1.2,0.2,1.2,2.3v2.5
	c0,0.6-0.1,0.6-1.2,0.6h-4.8c-1.1,0-1.2,0-1.2-0.6v-2.5c0-2.2,0.2-2.2,1.3-2.3l0.4-0.1c0.2-0.2,0.2-0.4,0-0.6
	c-0.9,0-1.9,0.1-2.9,0.1s-2,0-3-0.1c-0.2,0.2-0.2,0.4,0,0.6c0,0,0,0,0,0l0.5,0.1c1,0.1,1.2,0.2,1.2,2.3v7.6c0,2.2-0.2,2.2-1.2,2.4
	h-0.3c-0.1,0.2-0.1,0.4,0,0.6c0.9,0,1.9-0.1,2.8-0.1s2,0,3.2,0.1c0.2-0.1,0.2-0.4,0.1-0.5c0,0,0,0-0.1-0.1l-0.7-0.1
	c-1.1-0.1-1.3-0.2-1.3-2.3v-3c0-0.6,0.1-0.6,1.2-0.6h4.7c1.1,0,1.2,0,1.2,0.6v3c0,2.2-0.2,2.2-1.2,2.3l-0.5,0.1
	c-0.2,0.2-0.2,0.4,0,0.6c1,0,2-0.1,3-0.1s2,0,3,0.1c0.2-0.1,0.2-0.4,0.1-0.6L91,81.3c-1.1-0.1-1.3-0.2-1.3-2.3L89.7,71.4L89.7,71.4z
	 M108.5,81.4h0.4c1.1-0.1,1.3-0.4,1.4-1.7c0.1-1.2,0.6-7.8,0.6-9c0-1-0.3-1.4-1.2-1.5l-0.8-0.1c-0.1-0.1-0.1-0.5,0.1-0.6
	c0.7,0,1.3,0.1,2.1,0.1s1.6,0,2.4-0.1c0.2,1.2,0.6,2.3,1.2,3.3l3.2,6.8l3.1-6.2c0.7-1.3,1.3-2.6,1.7-3.9c0.6,0,1.4,0.1,1.8,0.1
	c0.9,0,1.7,0,2.4-0.1c0.2,0.1,0.3,0.3,0.2,0.4c0,0.1-0.1,0.1-0.1,0.1l-0.7,0.1c-1,0.1-1.2,0.5-1.2,1.6c0,3,0.1,6,0.2,9
	c0.1,1.4,0.3,1.5,1,1.6l0.6,0.1c0.2,0.1,0.2,0.5,0,0.6c-1,0-1.8-0.1-2.7-0.1s-2,0-3,0.1c-0.2-0.1-0.2-0.3-0.1-0.5
	c0-0.1,0.1-0.1,0.1-0.1l0.6-0.1c0.9-0.2,1-0.3,1-1.7v-8.4l-3,6.2c-0.7,1.4-1.8,3.7-2.3,4.6c-0.2,0.1-0.4,0.1-0.6,0
	c-0.5-1.2-1.4-3.1-1.9-4.1l-1.7-3.9c-0.4-0.9-1.3-2.8-1.3-2.8c0,1-0.2,6.2-0.2,8.2c0,1.3,0,1.7,1,1.8l0.7,0.1c0.2,0.1,0.2,0.5,0,0.6
	c-0.8,0-1.5-0.1-2.4-0.1s-1.5,0-2.4,0.1c-0.2-0.1-0.2-0.4-0.1-0.6c0,0,0,0,0,0L108.5,81.4z M97.4,76.2l2-4.9l2.1,5
	c0.2,0.5,0.1,0.5-0.5,0.5h-3.2C97.2,76.8,97.1,76.8,97.4,76.2L97.4,76.2z M98.6,70.6l-3.9,8.8C94,81,93.8,81.1,93,81.3l-0.7,0.1
	c-0.2,0.2-0.2,0.4,0,0.6c0.8,0,1.5-0.1,2.2-0.1c0.9,0,1.7,0,2.4,0.1c0.2-0.1,0.2-0.4,0.1-0.5c0,0,0,0-0.1-0.1l-0.6-0.1
	c-0.8-0.1-1-0.2-0.5-1.4l0.7-1.6c0.2-0.5,0.3-0.6,0.8-0.6h4.1c0.6,0,0.7,0,0.9,0.6l0.8,2c0.4,0.9,0.2,1-0.6,1.1l-0.5,0.1
	c-0.1,0.2-0.1,0.4,0.1,0.6c0,0,0,0,0,0c0.8,0,1.8-0.1,2.7-0.1c1.2,0,2,0,2.9,0.1c0.2-0.2,0.2-0.4,0-0.6l-0.3-0.1
	c-1.1-0.2-1.2-0.4-1.8-1.7l-3.8-8.5c-0.4-0.9-0.7-1.8-1-2.8c-0.1-0.1-0.2-0.2-0.4-0.2c-0.4,0.5-1,0.8-1.6,1
	C99,69.7,98.8,70.2,98.6,70.6L98.6,70.6z M171.1,72.3c0-1.8-1.5-3.1-3.2-3.1c0,0,0,0,0,0h-0.3c-1.3,0-1.5,0.1-1.5,1v4.4
	c0,0.6,0.1,0.7,1.3,0.7C169.9,75.3,171.1,74.2,171.1,72.3L171.1,72.3z M176.1,81.9c-0.5,0.1-1,0.1-1.5,0.1c-2.1,0-3.2-0.7-4.4-2.7
	l-1.5-2.6c-0.4-0.6-0.7-0.7-1.7-0.7c-0.8,0-1,0-1,0.4V79c0,2.2,0.2,2.2,1.3,2.4l0.5,0.1c0.1,0.1,0.1,0.5-0.1,0.6c-1,0-2-0.1-3-0.1
	s-2,0-3,0.1c-0.2-0.1-0.2-0.3-0.1-0.5c0,0,0,0,0,0l0.1-0.1l0.5-0.1c1.1-0.1,1.2-0.2,1.2-2.4v-7.4c0-2,0-2.2-1.1-2.3l-0.6-0.1
	c-0.1-0.1-0.1-0.4,0-0.5c0,0,0,0,0,0c1.4-0.1,3-0.2,5.6-0.2c4.3,0,6.4,1.2,6.4,3.8c-0.1,1.6-1.2,2.9-2.7,3.3c-0.1,0-0.1,0.2,0,0.3
	c3,5.1,3.7,5.5,5,5.7C176.1,81.7,176.1,81.9,176.1,81.9L176.1,81.9z M133.7,70.1c0-0.8,0.2-0.9,1.7-0.9c1.8,0,3.6,0.7,3.6,2.5
	s-1.4,2.6-3.8,2.6c-1.3,0-1.5,0-1.5-0.6V70.1z M133.7,75.6c0-0.4,0.1-0.5,1.6-0.5c2.7,0,4.5,1.2,4.5,3.3c0,1.8-1.7,2.7-3.4,2.7
	c-2.5,0-2.7-0.8-2.7-2.6V75.6z M129.3,81.4c-0.2,0.2-0.2,0.4,0,0.6c1,0,2-0.1,3-0.1s2.3,0.1,3.6,0.1c4.9,0,6.6-1.8,6.6-3.8
	c0-2.3-2-3.3-3.7-3.5c-0.1,0-0.2-0.1-0.2-0.1c0-0.1,0-0.1,0.1-0.1c1.8-0.3,2.9-1.3,2.9-2.7c0-2.2-1.9-3.2-6.4-3.2
	c-3,0-4.9,0.1-5.9,0.2c-0.1,0.1-0.2,0.4,0,0.5c0,0,0,0,0,0l0.6,0.1c1.1,0.1,1.1,0.4,1.1,2.3v7.4c0,2.2-0.2,2.2-1.3,2.4L129.3,81.4
	L129.3,81.4z M113.2,18.9L130,31.1l-6.4-19.8c-1.4-4.4-6.3-4.5-9.5-2.1S109.4,16.2,113.2,18.9L113.2,18.9z M131.8,33.6l-19.2-13.9
	c-4.6-3.3-2.5-8.7,0.9-11.2s9.2-2.8,10.9,2.6L131.8,33.6z M101.8,26.2c1.2-3.8,5.1-6.6,8.9-3.9l16.9,12.2h-20.8
	C102.1,34.5,100.6,29.9,101.8,26.2L101.8,26.2z M111.2,21.5c-4.6-3.3-9.1,0.3-10.4,4.3s0.2,9.6,5.9,9.6h23.7L111.2,21.5L111.2,21.5z
	 M154.8,18.9L138,31.1l6.5-19.8c1.4-4.4,6.3-4.4,9.5-2.1S158.7,16.2,154.8,18.9L154.8,18.9z M136.2,33.6l19.2-13.9
	c4.6-3.3,2.5-8.7-0.9-11.2s-9.2-2.8-10.9,2.6L136.2,33.6L136.2,33.6z M166.2,26.2c-1.2-3.8-5.1-6.6-8.9-3.9l-16.8,12.2h20.8
	C166,34.5,167.4,29.9,166.2,26.2L166.2,26.2z M156.8,21.5c4.6-3.3,9.1,0.3,10.4,4.3s-0.2,9.6-5.9,9.6h-23.7L156.8,21.5z M127.6,10
	l6.4,19.8l6.4-19.8c1.4-4.4-2.5-7.4-6.4-7.4S126.1,5.6,127.6,10L127.6,10z M134,32.9l-7.3-22.6c-1.8-5.4,3.1-8.5,7.3-8.5
	s9.1,3.2,7.3,8.5L134,32.9z"/>
<g>
	<path class="st1" d="M25.3,53.1c0.3-0.3,0.3-0.8,0-1.1c-1.2,0.1-3,0.1-4.7,0.1s-3.5,0-6-0.1c-0.3,0.2-0.4,0.7-0.2,1c0,0,0,0,0,0
		c0,0.1,0.1,0.1,0.2,0.2l1.6,0.2c1.7,0.2,1.9,0.4,1.9,2.2V59c0,2.1-0.8,2.5-2.4,2.5c-6.1,0-8.6-4.3-8.6-10c0-5.1,2.5-9.4,8.1-9.4
		c3-0.2,5.8,1.7,6.7,4.5c0.2,0.3,1.2,0.3,1.3-0.1c-0.3-2-0.4-4.2-0.5-5.2c-1.1,0-3.1-0.8-7-0.8c-10.2,0-14.3,5.6-14.3,11.5
		S5.4,63,15,63c2.1,0,4.3-0.3,6.3-0.8c0.8-0.2,1.7-0.4,2.5-0.5c0.2-0.1,0.2-0.6,0.1-0.8c-0.7-0.1-0.7-0.8-0.7-2.1v-3.3
		c0-1.7,0.2-2,1.3-2.2L25.3,53.1L25.3,53.1z M204.4,44.9c0-1.6,1.9-3,4.5-3c2.5,0.1,4.7,1.7,5.6,4c0.4,0.3,1.4,0.3,1.6-0.1
		c0-1.5-0.2-3-0.7-4.5c-0.5-0.1-0.9-0.1-1.4-0.3c-1.6-0.4-3.2-0.6-4.9-0.7c-5.9,0-9.4,2.7-9.4,6.4c0,7.4,13.3,5.3,13.3,11
		c0,1.8-1.5,3.7-4.8,3.7c-3.2-0.1-6-2.1-7.1-5.1c-0.5-0.4-1.1-0.3-1.5,0.1c-0.1,1.8,0.3,3.5,1,5.1c2.2,1,4.7,1.4,7.1,1.4
		c6.2,0,10-2.9,10-6.8C217.9,47.9,204.4,50.1,204.4,44.9L204.4,44.9z M200.4,42.1c0.3-0.2,0.3-1-0.2-1.1c-1.2,0.1-2.4,0.1-4,0.1
		s-2.9,0-4.6-0.1c-0.3,0.2-0.4,0.7-0.2,1c0,0.1,0.1,0.1,0.2,0.2l0.9,0.1c1.2,0.2,1.3,1,0.3,2.7l-4.2,6.7l-4.3-7.2
		c-0.7-1.1-0.6-1.9,0.3-2.1l1.2-0.2c0.3-0.3,0.3-0.7,0-1c0,0-0.1-0.1-0.1-0.1c-1.4,0.1-3.5,0.1-5.9,0.1s-3.9,0-5.8-0.1
		c-0.5,0.1-0.5,0.9-0.2,1.1l1.4,0.2c1.4,0.2,1.8,0.7,2.6,2l5.1,8c0.9,1.1,1.3,2.4,1.2,3.8v1.7c0,3-0.2,3.2-2.1,3.5l-1.4,0.2
		c-0.3,0.3-0.3,0.8,0,1.1c0,0,0,0,0,0c2.4-0.1,4.3-0.1,6.2-0.1s3.8,0,6.4,0.1c0.3-0.3,0.3-0.8,0-1.1l-1.6-0.2c-1.8-0.2-2-0.4-2-3.5
		v-2.3c0-1.8,0.5-2.6,1.5-4.2l2.4-3.7c1-1.6,2.2-3.2,3.5-4.6c0.6-0.4,1.2-0.7,1.9-0.8l1-0.2L200.4,42.1z"/>
	<path class="st1" d="M167.4,45.8c0-3,0.2-3.3,2.1-3.5l1-0.1c0.3-0.3,0.3-0.8,0-1.1c0,0,0,0,0,0c-2,0.1-3.8,0.1-5.8,0.1
		s-3.8,0-5.9-0.1c-0.3,0.1-0.5,0.5-0.4,0.8c0,0.1,0.1,0.2,0.2,0.3l1.2,0.1c1.8,0.2,2.1,0.5,2.1,3.5v12c0,3-0.2,3.3-2.1,3.5l-1.5,0.2
		c-0.3,0.2-0.2,0.9,0.1,1.1c2.5-0.1,4.5-0.1,6.4-0.1h3.9c3.3,0,6.6,0,8.8,0.1c0.9-1.6,1.5-3.4,1.8-5.2c-0.4-0.4-1-0.5-1.5-0.2
		c-2.3,3.8-3.6,3.8-6.3,3.8H171c-2.8,0-3.5-0.9-3.5-3.7L167.4,45.8L167.4,45.8z M154.9,62.5c0.9-1.6,1.4-3.4,1.7-5.2
		c-0.4-0.4-1-0.5-1.5-0.2c-2.2,3.7-3.7,3.8-6.6,3.8H147c-3.5,0-4-1.1-4-3.8v-3.8c0-1,0-1,1.1-1h2.9c2.1,0,2.6,0.2,3,1.8l0.2,0.8
		c0.5,0.3,1,0.3,1.5,0c-0.1-1-0.1-2.2-0.1-3.4s0.1-2.4,0.1-3.4c-0.5-0.3-1-0.3-1.5,0l-0.2,0.8c-0.4,1.6-0.9,1.8-3,1.8h-2.9
		c-1.1,0-1.1-0.1-1.1-1v-5.8c0-1.2,0-1.3,1.3-1.3h4.2c1.4-0.1,2.8,0.2,4,1c0.7,0.7,1.2,1.6,1.5,2.5c0.4,0.3,1.3,0.2,1.5-0.1
		c-0.2-2.2-0.5-4.5-0.5-5c-0.5,0.1-2.8,0.1-5.4,0.1h-9c-1.9,0-3.9,0-5.8-0.1c-0.3,0.2-0.4,0.6-0.2,1c0,0,0,0,0,0
		c0,0.1,0.1,0.1,0.1,0.2l1,0.2c1.8,0.3,2.1,0.5,2.1,3.4v12c0,3-0.2,3.2-2.1,3.4l-1.9,0.2c-0.3,0.3-0.3,0.8,0,1.1
		c3-0.1,5-0.1,6.9-0.1h4.9C149,62.4,152.8,62.4,154.9,62.5L154.9,62.5z M119.7,51.8c0,4.4-1.8,9.4-8,9.4c-1.9,0-3.7-0.3-3.7-3.6
		V44.3c0-1.4,0.1-1.8,2.1-1.8C116.6,42.5,119.7,45.9,119.7,51.8L119.7,51.8z M125.4,51.6c0-4.9-2.9-10.6-14.7-10.6
		c-4.4,0-7,0.1-10,0.3c-0.4,0-0.4,1-0.1,1.1l0.7,0.1c1.6,0.2,1.7,0.8,1.7,3.8v11.4c0,3-0.2,3.2-1.8,3.5l-1.1,0.2
		c-0.3,0.3-0.3,0.8,0,1.1c2-0.1,3.9-0.1,5.6-0.1s2.9,0.2,5,0.2C122.6,62.6,125.4,56.5,125.4,51.6L125.4,51.6z M240.7,62.5
		c0.9-1.6,1.4-3.4,1.7-5.2c-0.4-0.4-1-0.5-1.5-0.2c-2.2,3.7-3.7,3.8-6.6,3.8h-1.5c-3.5,0-4-1.1-4-3.8v-3.8c0-1,0-1,1.1-1h2.9
		c2.1,0,2.6,0.2,3,1.8l0.2,0.8c0.5,0.3,1,0.3,1.5,0c-0.1-1-0.1-2.2-0.1-3.4c0-1.1,0-2.3,0.1-3.4c-0.5-0.3-1-0.3-1.5,0l-0.2,0.8
		c-0.4,1.6-0.9,1.8-3,1.8h-2.9c-1.1,0-1.1-0.1-1.1-1v-5.8c0-1.2,0-1.3,1.3-1.3h4.3c1.4-0.1,2.8,0.2,4,1c0.7,0.7,1.2,1.6,1.5,2.5
		c0.4,0.3,1.3,0.2,1.5-0.1c-0.2-2.2-0.5-4.5-0.5-5c-0.5,0.1-2.8,0.1-5.4,0.1h-9c-1.9,0-3.9,0-5.8-0.1c-0.3,0.2-0.4,0.6-0.2,1
		c0,0,0,0,0,0c0,0.1,0.1,0.1,0.1,0.2l1,0.2c1.8,0.3,2.1,0.5,2.1,3.4v12c0,3-0.2,3.2-2.1,3.4l-1.9,0.2c-0.3,0.3-0.3,0.8,0,1.1
		c3-0.1,5-0.1,6.9-0.1h4.9C234.8,62.4,238.6,62.4,240.7,62.5L240.7,62.5z M264.9,62.5c0.9-1.6,1.4-3.4,1.7-5.2
		c-0.4-0.4-1-0.5-1.5-0.2c-2.2,3.7-3.7,3.8-6.6,3.8h-1.5c-3.5,0-4-1.1-4-3.8v-3.8c0-1,0-1,1.1-1h2.9c2.1,0,2.6,0.2,3,1.8l0.2,0.8
		c0.5,0.3,1,0.3,1.5,0c-0.1-1-0.1-2.2-0.1-3.4c0-1.1,0-2.3,0.1-3.4c-0.5-0.3-1-0.3-1.5,0l-0.2,0.8c-0.4,1.6-0.9,1.8-3,1.8h-2.9
		c-1.1,0-1.1-0.1-1.1-1v-5.8c0-1.2,0-1.3,1.3-1.3h4.2c1.4-0.1,2.8,0.2,4,1c0.7,0.7,1.2,1.6,1.5,2.5c0.4,0.3,1.3,0.2,1.5-0.1
		c-0.2-2.2-0.5-4.5-0.5-5c-0.5,0.1-2.8,0.1-5.4,0.1h-9c-1.9,0-3.9,0-5.8-0.1c-0.3,0.2-0.4,0.7-0.2,1c0,0,0,0,0,0
		c0,0.1,0.1,0.1,0.1,0.1l1,0.2c1.8,0.3,2.1,0.5,2.1,3.4v12c0,3-0.2,3.2-2.1,3.4l-1.9,0.2c-0.3,0.3-0.3,0.8,0,1.1c3-0.1,5-0.1,7-0.1
		h4.8C259,62.4,262.8,62.4,264.9,62.5L264.9,62.5z M98.4,41c-1.4,0.1-2.7,0.1-4,0.1s-2.8,0-4.8-0.1c-0.3,0.3-0.3,0.8,0,1.1l1,0.1
		c1,0.2,1.7,0.4,2.1,1c0.4,0.9,0.5,3.3,0.5,5.9V55c-1-1-1.8-1.8-3.4-3.5l-3-3.2c-3.2-3.4-5.5-5.9-5.9-7.4c-0.8,0.1-1.8,0.1-3,0.1
		c-1.4,0-3.1,0-4.8-0.1c-0.4,0.1-0.4,0.9-0.1,1.1l1,0.1c1.2,0.2,1.8,0.5,2,1.1c0.3,0.9,0.4,1.8,0.2,2.8v8.2c0.1,2-0.1,4-0.5,5.9
		c-0.4,0.8-1.2,1.2-2,1.2c-1.4,0-2.1-1.1-3-3.1L65,45.7c-0.8-1.6-1.3-3.3-1.7-5c-0.1-0.2-0.3-0.3-0.8-0.3c-0.9,1.1-2.1,1.9-3.4,2.2
		c0.1,0.9-0.2,2.1-1.2,4.1l-5,10.9c-1.2,2.6-1.9,3.7-2.6,3.7c-1,0-3-2.1-5.9-8.3c-0.2-0.4-0.2-0.6,0.2-0.7c1.6-0.7,3.9-2.2,3.9-5.1
		c0-2.1-1.3-6.1-10.2-6.1c-4.4,0-7.5,0.1-10,0.3c-0.3,0.2-0.4,0.6-0.2,0.9c0,0.1,0.1,0.1,0.2,0.2l1,0.1c1.5,0.2,1.6,0.5,1.6,3.8
		v11.5c0,3-0.2,3.2-1.8,3.5l-1,0.2c-0.3,0.3-0.3,0.8,0,1.1c1.8-0.1,3.6-0.1,5.3-0.1s3.5,0,5.4,0.1c0.3-0.3,0.3-0.8,0-1.1l-1-0.2
		c-1.6-0.3-1.8-0.5-1.8-3.5v-3.7c0-0.7,0.3-0.7,1.6-0.7c0.9-0.1,1.7,0.4,2,1.3c0.7,1.6,1.6,3.2,2.5,4.7c1.7,2.5,4.4,3.3,7,3.3
		c1.1,0,2.5-0.2,3.9-0.2c1.1,0,2.6,0,3.9,0.1c0.3-0.2,0.3-0.9,0.1-1.1l-1.1-0.2c-1.2-0.2-1.4-0.7-1-1.7l1.2-2.9
		c0.1-0.4,0.5-0.7,1-0.7h6.6c0.6,0,0.8,0.1,1,0.7l1.2,2.9c0.4,1,0.2,1.6-0.6,1.7l-1.1,0.2c-0.3,0.2-0.4,0.7-0.1,1c0,0,0,0,0,0
		c0,0.1,0.1,0.1,0.2,0.2c1.6-0.1,3.1-0.1,4.8-0.1c1.6,0,3,0.1,5,0.1c1,0,2.3-0.1,3.6-0.1s2.6,0,4.5,0.1c0.3-0.3,0.3-0.8,0-1.1
		l-0.9-0.1c-0.9-0.1-1.8-0.4-2.1-1c-0.4-0.9-0.5-3.3-0.5-5.9v-8c1.3,1.1,2.5,2.4,3.6,3.7l8.2,9.2c1.7,1.9,2.7,3.3,2.9,3.5
		c0.8,0,1.6-0.2,2.2-0.8c-0.1-1.1-0.1-3.1-0.1-5.2v-7.7c-0.1-2,0.1-4,0.5-5.9c0.3-0.7,1-0.9,1.9-1.1l0.6-0.1
		C98.6,41.8,98.6,41.4,98.4,41L98.4,41z M43.1,47.4c0,2.6-1.2,4.5-4.4,4.5c-2.7,0-2.9-0.1-2.9-1.2v-6.6c0-1.6,0.2-1.7,2.1-1.7
		C41.2,42.5,43.1,44.4,43.1,47.4z M62.6,54.2h-4.9c-0.6,0-0.8-0.2-0.5-0.8l3-7.1l3,7.1C63.5,54,63.3,54.2,62.6,54.2L62.6,54.2z"/>
</g>
</svg>
