<svg xmlns="http://www.w3.org/2000/svg" viewBox="0 0 363 153">
  <g id="Ebene_2" data-name="Ebene 2">
    <g id="Ebene_1-2" data-name="Ebene 1">
      <g>
        <rect width="363" height="153" style="fill: #8e151f"/>
        <g>
          <path d="M192.37,84.08l.38.06c1,.14,1.25.2,1.25,2.36v4.77c0,4.55,2.09,6.06,6,6.06,3.61,0,5.8-1.82,5.8-6V88.68a13.13,13.13,0,0,1,.31-4c.16-.33.56-.41,1-.49l.49-.1a.37.37,0,0,0,0-.52l0,0c-.82,0-1.43.06-2.37.06s-1.72,0-2.49-.06c-.22.06-.24.42,0,.57l.45.06a1.51,1.51,0,0,1,1.12.53c.4.59.42,2.48.42,4v2.68c0,3-1.14,5-4.07,5-3.12,0-4-2.22-4-5v-4.8c0-2.16.2-2.22,1.25-2.36l.56-.06a.38.38,0,0,0-.08-.54l0,0c-1,0-2,.06-3,.06s-2,0-2.89-.06a.38.38,0,0,0,0,.54l0,0Zm47.34,6.43a.37.37,0,0,1,.08.51.3.3,0,0,1-.08.08l-.4.06c-.83.1-1,.29-1,1.53v2.2c0,.71.11,1.24.53,1.43a.24.24,0,0,1,0,.3,5.42,5.42,0,0,0-1.07.16,22.81,22.81,0,0,1-4.35.55c-6.3,0-8.55-3.4-8.55-6.9,0-3.17,2-7.19,8.75-7.19a19,19,0,0,1,3,.31,8.6,8.6,0,0,0,1.43.18c0,.61.19,1.65.3,3.24a.53.53,0,0,1-.72,0c-.49-2-2.08-3-4.3-3-3.81,0-5.58,2.58-5.58,6,0,4.32,2.55,6.42,5.8,6.42,2.07,0,2.2-.52,2.2-1.75V93c0-1.44,0-1.56-1.52-1.79l-.81-.12a.39.39,0,0,1,0-.56l0,0c.88,0,2,.06,3.5.06,1,0,1.76,0,2.73-.06Zm-102.49-4c0-2.16.21-2.18,1.26-2.34l.4-.06a.42.42,0,0,0,0-.58h0c-.89,0-1.9.06-2.89.06s-2,0-3-.06a.4.4,0,0,0,0,.58h0l.49.06c1,.13,1.25.18,1.25,2.34V89c0,.58-.06.62-1.2.62h-4.82c-1.14,0-1.21,0-1.21-.62V86.5c0-2.16.21-2.17,1.26-2.34l.38-.06a.42.42,0,0,0,0-.59c-.87,0-1.88.06-2.87.06s-2,0-3-.06a.4.4,0,0,0,0,.58h0l.49.06c1,.13,1.25.18,1.25,2.34v7.57c0,2.16-.2,2.23-1.25,2.37h-.32a.47.47,0,0,0,0,.59c.85,0,1.86-.06,2.84-.06s2,0,3.16.06a.38.38,0,0,0,0-.59l-.67-.08c-1.06-.13-1.26-.17-1.26-2.33V91c0-.55.07-.59,1.21-.59h4.71c1.14,0,1.2,0,1.2.59v3c0,2.16-.2,2.22-1.25,2.35l-.49.06a.44.44,0,0,0,0,.59c1,0,2-.06,3-.06s2,0,3,.06a.41.41,0,0,0,.07-.56s0,0,0,0l-.49-.06c-1.06-.13-1.26-.18-1.26-2.34V86.5Zm18.76,10h.38c1.07-.12,1.27-.43,1.4-1.67s.55-7.8.55-9c0-1-.34-1.39-1.21-1.51l-.76-.12c-.14-.14-.12-.53.09-.59.67,0,1.3.06,2.13.06s1.59,0,2.42-.06a9.73,9.73,0,0,0,1.23,3.27l3.17,6.76,3.1-6.25a30.14,30.14,0,0,0,1.74-3.89c.61,0,1.35.06,1.84.06.94,0,1.72,0,2.35-.06a.35.35,0,0,1,.18.45.26.26,0,0,1-.11.14l-.74.1c-1,.12-1.21.47-1.21,1.55,0,3,.05,6,.2,9,.07,1.36.32,1.47,1,1.58l.65.11c.22.08.2.51,0,.59-1,0-1.84-.06-2.74-.06s-2,0-3,.06a.34.34,0,0,1,0-.59l.6-.11c.89-.15,1-.28,1-1.66V86.3l-3,6.21c-.71,1.44-1.83,3.68-2.29,4.64a.66.66,0,0,1-.58,0c-.49-1.2-1.4-3.07-1.86-4.11l-1.72-3.91c-.39-.88-1.34-2.83-1.34-2.83,0,1-.24,6.19-.23,8.24,0,1.35,0,1.67,1,1.82l.73.12c.16.12.16.51,0,.59-.83,0-1.52-.06-2.35-.06s-1.52,0-2.4.06a.4.4,0,0,1-.08-.57l0,0Zm-11.09-5.19,2-4.93,2.14,5c.21.48.09.53-.54.53h-3.24c-.54,0-.6,0-.36-.59Zm1.2-5.61-3.91,8.84c-.68,1.54-.89,1.71-1.65,1.82l-.67.11a.42.42,0,0,0,0,.59c.79,0,1.48-.06,2.22-.06.92,0,1.66,0,2.38.06a.38.38,0,0,0,0-.59l-.65-.11c-.82-.12-1-.17-.47-1.36l.66-1.64c.23-.54.26-.55.77-.55h4.14c.63,0,.68,0,.92.55l.84,2c.36.85.22,1-.58,1.08l-.5.06a.42.42,0,0,0,.07.59c.78,0,1.77-.06,2.73-.06,1.17,0,2,0,2.91.06a.42.42,0,0,0,0-.58h0l-.33-.06c-1.14-.21-1.18-.36-1.77-1.69l-3.77-8.53a21.19,21.19,0,0,1-1-2.8.55.55,0,0,0-.38-.16,3.91,3.91,0,0,1-1.57,1,3,3,0,0,1-.43,1.49Zm72.48,1.72a3.17,3.17,0,0,0-3.22-3.12h-.27c-1.32,0-1.46.06-1.46,1v4.42c0,.65.11.69,1.34.69,2.4,0,3.61-1.07,3.61-3Zm5.06,9.62a6.17,6.17,0,0,1-1.48.12c-2.15,0-3.21-.68-4.41-2.69l-1.5-2.58c-.37-.63-.69-.69-1.66-.69-.81,0-1,0-1,.45v2.41c0,2.16.2,2.22,1.26,2.35l.49.06c.15.14.13.51-.05.59-1,0-2-.06-3-.06s-2,0-3,.06a.37.37,0,0,1-.11-.52l.06-.07.5-.06c1.05-.13,1.25-.19,1.25-2.35V86.62c0-2,0-2.19-1.07-2.3l-.58-.06a.37.37,0,0,1,0-.53s0,0,0,0c1.41-.12,3-.18,5.55-.18,4.26,0,6.36,1.23,6.36,3.76a3.64,3.64,0,0,1-2.68,3.31c-.14,0-.08.21,0,.34,3,5.12,3.71,5.52,5,5.72a.38.38,0,0,1,0,.41ZM181.17,85.18c0-.82.17-.86,1.72-.86,1.79,0,3.58.71,3.58,2.51s-1.42,2.58-3.81,2.58c-1.27,0-1.49,0-1.49-.55Zm0,5.54c0-.41.15-.53,1.56-.53,2.66,0,4.53,1.24,4.53,3.34,0,1.81-1.7,2.72-3.39,2.72-2.52,0-2.7-.75-2.7-2.6Zm-4.35,5.76a.44.44,0,0,0,0,.59c1,0,2-.06,3-.06s2.33.06,3.58.06c4.94,0,6.59-1.83,6.59-3.85,0-2.3-2-3.3-3.74-3.54-.14,0-.18-.08-.18-.13s0-.1.13-.12c1.83-.31,2.93-1.3,2.93-2.72,0-2.18-1.92-3.2-6.36-3.2-3,0-4.9.1-5.91.18a.38.38,0,0,0,0,.54l0,0,.58.06c1.05.11,1.08.35,1.08,2.3v7.45c0,2.16-.21,2.22-1.26,2.35l-.49.06Z" style="fill: #a0884b"/>
          <path d="M160.67,34l16.82,12.22-6.42-19.77c-1.44-4.42-6.3-4.45-9.49-2.13S156.91,31.31,160.67,34Zm18.61,14.68L160.12,34.75c-4.56-3.31-2.48-8.74.9-11.2s9.2-2.76,10.94,2.6Zm-30-7.38c1.22-3.76,5.11-6.61,8.87-3.88L175,49.63H154.22c-4.65,0-6.12-4.59-4.9-8.34Zm9.42-4.64c-4.56-3.31-9.09.34-10.38,4.33s.22,9.59,5.86,9.59h23.7L158.74,36.65ZM202.31,34,185.54,46.21,192,26.44c1.44-4.42,6.3-4.45,9.49-2.13s4.66,7,.9,9.68Zm-18.6,14.68,19.17-13.92c4.57-3.31,2.49-8.74-.9-11.2s-9.19-2.76-10.94,2.6l-7.31,22.52Zm30-7.38c-1.22-3.76-5.11-6.61-8.87-3.88L188,49.63h20.79C213.46,49.63,214.93,45,213.71,41.29Zm-9.43-4.64c4.57-3.31,9.09.34,10.39,4.33s-.22,9.59-5.86,9.59H185.13ZM175.09,25.13l6.42,19.76,6.42-19.77c1.44-4.42-2.47-7.37-6.42-7.37s-7.86,2.95-6.42,7.37ZM181.51,48,174.2,25.43c-1.75-5.37,3.13-8.54,7.31-8.54s9.06,3.17,7.32,8.54Z" style="fill: #a0884b"/>
          <g>
            <g>
              <path d="M72.76,68.24a.84.84,0,0,0,0-1.13c-1.21.07-3,.1-4.65.1s-3.51,0-6-.1a.7.7,0,0,0-.17,1,.65.65,0,0,0,.17.16l1.56.19c1.71.23,1.92.43,1.92,2.17v3.51c0,2.1-.77,2.46-2.43,2.46-6.12,0-8.64-4.34-8.64-10,0-5.1,2.46-9.36,8.11-9.36a6.55,6.55,0,0,1,6.68,4.55c.25.33,1.21.29,1.35-.06-.35-2-.39-4.23-.5-5.2-1.13,0-3.09-.78-7-.78-10.23,0-14.29,5.58-14.29,11.45s4.07,10.88,13.66,10.88a30.12,30.12,0,0,0,6.34-.77,19.22,19.22,0,0,1,2.49-.49c.21-.09.24-.64.1-.77-.67-.13-.74-.78-.74-2.14V70.6c0-1.74.21-2,1.28-2.23l.81-.13Z" style="fill: #fff"/>
              <path d="M251.94,60.06c0-1.62,1.86-3,4.52-3a6.32,6.32,0,0,1,5.6,4c.36.32,1.37.29,1.58-.1a12,12,0,0,0-.73-4.48,10.67,10.67,0,0,1-1.37-.26,23.58,23.58,0,0,0-4.88-.65c-5.85,0-9.36,2.67-9.36,6.44,0,7.43,13.33,5.33,13.33,11,0,1.82-1.49,3.67-4.76,3.67a7.76,7.76,0,0,1-7.08-5.07,1.16,1.16,0,0,0-1.53.1,10.6,10.6,0,0,0,1,5.09,16.79,16.79,0,0,0,7.13,1.37c6.19,0,10-2.86,10-6.83,0-8.31-13.51-6.12-13.51-11.3Z" style="fill: #fff"/>
              <path d="M247.87,57.25c.32-.22.32-1-.16-1.13-1.17.07-2.42.1-4,.1s-2.94,0-4.56-.1a.7.7,0,0,0,0,1.13l.93.13c1.22.17,1.34.95.26,2.69l-4.16,6.71-4.31-7.19c-.67-1.12-.6-1.93.33-2.11l1.23-.23a.71.71,0,0,0,0-1,.74.74,0,0,0-.13-.12c-1.38.07-3.48.1-5.94.1s-3.94,0-5.76-.1c-.48.1-.52.87-.16,1.13l1.37.2c1.42.2,1.75.72,2.59,2l5.07,8a5.58,5.58,0,0,1,1.25,3.84v1.65c0,3-.25,3.24-2.06,3.46l-1.37.16a.79.79,0,0,0,0,1.12h0c2.38-.06,4.31-.1,6.24-.1s3.83,0,6.45.1a.87.87,0,0,0,0-1.13l-1.62-.16c-1.82-.19-2-.45-2-3.46V70.62c0-1.84.53-2.62,1.54-4.16l2.41-3.69a27.29,27.29,0,0,1,3.51-4.58,3.73,3.73,0,0,1,1.94-.78l1-.16Z" style="fill: #fff"/>
              <path d="M214.93,60.89c0-3,.24-3.26,2.06-3.49l1-.13a.78.78,0,0,0,0-1.11v0c-2,.07-3.84.1-5.78.1s-3.75,0-5.85-.1A.65.65,0,0,0,206,57a.57.57,0,0,0,.25.28l1.17.13c1.82.2,2.06.49,2.06,3.49v12c0,3-.24,3.27-2.06,3.46l-1.53.16c-.33.2-.25.94.12,1.13,2.5-.06,4.52-.1,6.37-.1h3.87c3.31,0,6.65,0,8.79.1a17,17,0,0,0,1.8-5.24,1.26,1.26,0,0,0-1.53-.2C223,76,221.66,76.05,219,76.05h-.48c-2.84,0-3.54-.94-3.54-3.74V60.89Z" style="fill: #fff"/>
              <path d="M202.39,77.63a15.71,15.71,0,0,0,1.69-5.17,1.16,1.16,0,0,0-1.49-.16c-2.22,3.65-3.71,3.75-6.57,3.75h-1.53c-3.48,0-4-1.11-4-3.77V68.43c0-1,0-1,1.13-1h2.85c2.11,0,2.6.24,3,1.81l.2.81a1.36,1.36,0,0,0,1.5,0c-.08-1-.13-2.19-.13-3.42s.05-2.39.13-3.42a1.49,1.49,0,0,0-1.5,0l-.2.81c-.39,1.57-.88,1.78-3,1.78h-2.85c-1.09,0-1.13-.06-1.13-1V59c0-1.19,0-1.26,1.33-1.26h4.24a6.21,6.21,0,0,1,4,1,6.93,6.93,0,0,1,1.53,2.55c.4.29,1.33.22,1.49-.13-.2-2.17-.48-4.49-.52-5-.52.07-2.83.1-5.41.1h-9c-1.94,0-3.91,0-5.81-.1a.7.7,0,0,0-.22,1,.54.54,0,0,0,.14.16l1,.16c1.81.29,2.06.49,2.06,3.43v12c0,3-.25,3.18-2.06,3.4l-1.9.22a.8.8,0,0,0,0,1.11l0,0c3-.06,5-.1,6.94-.1h4.85c3.31,0,7.12,0,9.26.1Z" style="fill: #fff"/>
              <path d="M167.21,66.89c0,4.39-1.82,9.36-8,9.36-1.85,0-3.66-.34-3.66-3.61V59.45c0-1.38.08-1.84,2.1-1.84,6.43,0,9.53,3.45,9.53,9.27Zm5.66-.2c0-4.92-2.86-10.57-14.68-10.57-4.39,0-7,.13-10,.29-.43,0-.43,1-.07,1.13l.68.07c1.63.16,1.7.77,1.7,3.84V72.89c0,3-.21,3.2-1.81,3.46l-1.1.16a.84.84,0,0,0,0,1.13c2-.06,3.92-.1,5.62-.1s2.88.2,5,.2c11.9,0,14.71-6.12,14.71-11Z" style="fill: #fff"/>
              <path d="M288.18,77.63a15.71,15.71,0,0,0,1.69-5.17,1.16,1.16,0,0,0-1.49-.16c-2.22,3.65-3.71,3.75-6.57,3.75h-1.53c-3.48,0-4-1.11-4-3.77V68.43c0-1,0-1,1.13-1h2.85c2.11,0,2.6.24,3,1.81l.2.81a1.36,1.36,0,0,0,1.5,0c-.08-1-.12-2.19-.12-3.42a30.72,30.72,0,0,1,.12-3.42,1.49,1.49,0,0,0-1.5,0l-.2.81c-.39,1.57-.88,1.78-3,1.78h-2.85c-1.09,0-1.13-.06-1.13-1V59c0-1.19,0-1.26,1.33-1.26h4.26a6.21,6.21,0,0,1,4,1,6.93,6.93,0,0,1,1.53,2.55c.4.29,1.33.22,1.49-.13-.2-2.17-.48-4.49-.52-5-.52.07-2.83.1-5.41.1h-9c-1.94,0-3.91,0-5.81-.1a.7.7,0,0,0-.22,1,.54.54,0,0,0,.14.16l1,.16c1.81.29,2.06.49,2.06,3.43v12c0,3-.25,3.18-2.06,3.4l-1.9.22a.8.8,0,0,0,0,1.11l0,0c3-.06,5-.1,6.94-.1H279c3.31,0,7.12,0,9.26.1Z" style="fill: #fff"/>
              <path d="M312.44,77.63a15.71,15.71,0,0,0,1.69-5.17,1.16,1.16,0,0,0-1.49-.16c-2.22,3.65-3.71,3.75-6.57,3.75h-1.52c-3.49,0-4-1.11-4-3.77V68.43c0-1,0-1,1.13-1h2.86c2.11,0,2.59.24,3,1.81l.21.81a1.35,1.35,0,0,0,1.49,0c-.08-1-.12-2.19-.12-3.42a30.72,30.72,0,0,1,.12-3.42,1.38,1.38,0,0,0-1.49,0l-.21.81c-.39,1.57-.87,1.78-3,1.78h-2.86c-1.09,0-1.13-.06-1.13-1V59c0-1.19,0-1.26,1.34-1.26h4.23a6.21,6.21,0,0,1,4,1,6.93,6.93,0,0,1,1.53,2.55c.41.29,1.34.22,1.5-.13-.2-2.17-.49-4.49-.53-5-.52.07-2.82.1-5.41.1h-9c-1.93,0-3.91,0-5.81-.1a.72.72,0,0,0-.21,1,.86.86,0,0,0,.13.14l1,.16c1.81.29,2.06.49,2.06,3.43v12c0,3-.25,3.18-2.06,3.4l-1.9.22a.8.8,0,0,0,0,1.11l0,0c3-.06,5-.1,6.95-.1h4.84c3.31,0,7.12,0,9.26.1Z" style="fill: #fff"/>
            </g>
            <path d="M145.87,56.12c-1.39.07-2.67.1-4,.1s-2.84,0-4.76-.1a.92.92,0,0,0,0,1.13l1,.13c1,.16,1.74.36,2.06,1,.39.87.53,3.28.53,5.91v5.84c-1-1-1.8-1.79-3.38-3.49l-3-3.2c-3.21-3.44-5.51-5.9-5.86-7.36-.75.07-1.78.1-3,.1-1.45,0-3.14,0-4.81-.1-.35.1-.39.87-.14,1.13l1,.13c1.24.23,1.77.55,2,1.1a6.84,6.84,0,0,1,.25,2.75v8.2a22.09,22.09,0,0,1-.5,5.91,2.06,2.06,0,0,1-2,1.16c-1.37,0-2.12-1.08-3-3.07l-5.73-12.62a22.57,22.57,0,0,1-1.72-5c-.12-.18-.28-.32-.75-.35a6.76,6.76,0,0,1-3.45,2.24c.11.94-.24,2.08-1.19,4.07l-5,10.89c-1.2,2.62-1.91,3.67-2.57,3.67-1,0-3-2.11-5.91-8.28-.17-.36-.18-.55.18-.71,1.63-.74,3.88-2.24,3.88-5.11,0-2.07-1.35-6.1-10.22-6.1-4.37,0-7.46.11-10,.31a.69.69,0,0,0-.07,1.13l1,.13c1.49.21,1.56.55,1.56,3.78V72.89c0,3-.21,3.19-1.81,3.46l-1,.16a.87.87,0,0,0,0,1.13c1.85-.06,3.55-.1,5.32-.1s3.48,0,5.36.1a.94.94,0,0,0,0-1.13l-1-.16c-1.6-.27-1.81-.49-1.81-3.46v-3.7c0-.65.31-.71,1.58-.71a1.8,1.8,0,0,1,2,1.26,41.78,41.78,0,0,0,2.49,4.73c1.67,2.54,4.38,3.26,7,3.26,1.09,0,2.5-.2,3.89-.2,1.13,0,2.64,0,3.89.1.35-.16.28-.9.07-1.13l-1.07-.16c-1.25-.19-1.44-.74-1-1.71l1.24-2.94a.87.87,0,0,1,1-.65H111c.58,0,.76.09,1,.65l1.23,2.94c.43,1,.22,1.58-.65,1.71l-1.14.16a.69.69,0,0,0-.11,1,.55.55,0,0,0,.18.16c1.64-.06,3.06-.1,4.84-.1,1.57,0,3,.1,5,.1,1,0,2.28-.1,3.64-.1s2.58,0,4.49.1a.92.92,0,0,0,0-1.13l-.93-.12c-.93-.12-1.8-.36-2.12-1-.39-.87-.53-3.29-.53-5.91v-8a30.94,30.94,0,0,1,3.6,3.73l8.21,9.24c1.67,1.87,2.74,3.33,2.88,3.52a3.4,3.4,0,0,0,2.25-.75c-.07-1.06-.07-3.1-.07-5.2V64.33a20.83,20.83,0,0,1,.53-5.91c.32-.68,1-.88,1.92-1.07l.64-.1a1,1,0,0,0,0-1.13ZM90.6,62.52c0,2.61-1.25,4.53-4.39,4.53-2.67,0-2.87-.1-2.87-1.23V59.26c0-1.56.24-1.65,2.06-1.65C88.73,57.61,90.6,59.49,90.6,62.52Zm19.53,6.81h-4.88c-.62,0-.8-.23-.54-.85l3-7.13,3,7.13c.26.62.08.85-.56.85Z" style="fill: #fff"/>
          </g>
          <g>
            <path d="M103.34,126.05c-.6,0-.58,0-.79.62l-.92,2.79c-.47,1.37-.17,1.42.69,1.56l.68.11a.5.5,0,0,1,0,.67c-.74,0-1.63,0-2.58-.07-.77,0-1.49,0-2.3.07a.52.52,0,0,1,0-.67l.7-.11c.67-.12.92-.31,1.27-1.07.28-.61.65-1.58,1.14-2.84l3.18-8.26a4,4,0,0,0,.44-1.7,4,4,0,0,0,1.63-1.11.45.45,0,0,1,.39.18c.38,1,.68,2.14,1,3.18l3.34,9.73c.54,1.56.65,1.7,1.84,1.93l.35.07a.5.5,0,0,1,0,.67c-1,0-1.81-.07-3-.07-1,0-2,.05-2.83.07a.52.52,0,0,1-.07-.67l.51-.07c.83-.12,1-.25.6-1.23l-1.09-3.16c-.21-.62-.3-.62-1-.62Zm2.91-1c.65,0,.74,0,.55-.6l-1-2.79a16.06,16.06,0,0,0-.68-1.93h0c-.09.16-.33.84-.72,1.93l-1,2.72c-.23.67-.18.67.37.67Z" style="fill: #fff"/>
            <path d="M133.53,131.13c.23.09.21.58-.05.67-1,0-1.9-.07-2.83-.07-1.09,0-2.09,0-3.11.07-.19-.09-.28-.53-.05-.67l.63-.11c.93-.17,1-.33,1-1.91v-9.5h-.05c-.62,1.28-.95,2-1.39,2.91l-2,4.08c-.79,1.63-2,4.21-2.37,5.3a.7.7,0,0,1-.6,0c-.4-1.26-1.39-3.53-1.93-4.69l-2-4.46c-.44-1-1.11-2.51-1.39-3.21h0l-.16,4c0,1.41-.14,3.48-.14,5.38,0,1.54,0,1.89,1,2.07l.77.14c.16.14.16.58,0,.67-.86,0-1.58-.07-2.44-.07s-1.53,0-2.44.07a.5.5,0,0,1-.07-.67l.4,0c1.11-.14,1.3-.48,1.46-1.9s.28-3,.39-5.39c.1-1.58.24-3.5.24-4.92,0-1.09-.35-1.56-1.26-1.72l-.79-.14c-.14-.16-.11-.6.09-.67.7,0,1.33.07,2.19.07s1.62,0,2.48-.07a10.68,10.68,0,0,0,1.28,3.85l2.48,5.37c.19.39.82,1.72,1.12,2.25.37-.67.77-1.49,1.3-2.58l2.16-4.46a24,24,0,0,0,1.88-4.43c.63,0,1.3.07,1.81.07,1,0,1.79,0,2.44-.07a.4.4,0,0,1,.07.67l-.77.12c-1,.16-1.25.53-1.25,1.76,0,3.44,0,6.88.21,10.31.07,1.56.32,1.7,1.07,1.82Z" style="fill: #fff"/>
            <path d="M143,119.89c0-2.23,0-2.55-1.11-2.65l-.49,0a.48.48,0,0,1,0-.65c1.68-.14,3.53-.21,5.81-.21a15.15,15.15,0,0,1,5.48.79,7.1,7.1,0,0,1,4.76,6.94,7.36,7.36,0,0,1-4.16,6.69,12.68,12.68,0,0,1-5.76,1.11c-1.41,0-2.5-.14-3.36-.14s-1.93,0-3,.07c-.19-.09-.21-.51,0-.67l.51-.07c1.09-.14,1.3-.21,1.3-2.67Zm2.7,7.59c0,2.26.16,3.46,2.62,3.46,4.14,0,6-2.92,6-6.85,0-4.59-2.67-6.82-6.55-6.82a4.11,4.11,0,0,0-1.88.32c-.16.14-.18.63-.18,1.72Z" style="fill: #fff"/>
            <path d="M163.18,126.05c-.61,0-.58,0-.79.62l-.93,2.79c-.47,1.37-.16,1.42.69,1.56l.68.11c.16.16.14.58-.05.67-.74,0-1.62,0-2.58-.07-.76,0-1.48,0-2.3.07a.52.52,0,0,1,0-.67l.7-.11c.67-.12.93-.31,1.28-1.07.27-.61.65-1.58,1.13-2.84l3.19-8.26a4.17,4.17,0,0,0,.44-1.7,4,4,0,0,0,1.62-1.11.46.46,0,0,1,.4.18c.37,1,.67,2.14,1,3.18l3.35,9.73c.53,1.56.65,1.7,1.83,1.93l.35.07a.48.48,0,0,1,0,.67c-.95,0-1.81-.07-3-.07-1,0-2,.05-2.83.07a.52.52,0,0,1-.07-.67l.51-.07c.84-.12,1-.25.61-1.23l-1.1-3.16c-.2-.62-.3-.62-1-.62Zm2.9-1c.65,0,.74,0,.56-.6l-1-2.79a20,20,0,0,0-.67-1.93h-.05c-.09.16-.32.84-.72,1.93l-1,2.72c-.24.67-.19.67.37.67Z" style="fill: #fff"/>
            <path d="M193.36,131.13c.24.09.21.58,0,.67-1,0-1.91-.07-2.84-.07-1.09,0-2.08,0-3.11.07-.18-.09-.28-.53,0-.67L188,131c.93-.17,1-.33,1-1.91v-9.5h0c-.63,1.28-1,2-1.4,2.91l-2,4.08c-.79,1.63-2,4.21-2.37,5.3a.72.72,0,0,1-.61,0,48.53,48.53,0,0,0-1.93-4.69l-2-4.46c-.44-1-1.12-2.51-1.4-3.21h0l-.16,4c-.05,1.41-.14,3.48-.14,5.38,0,1.54,0,1.89,1,2.07l.76.14c.17.14.17.58,0,.67-.86,0-1.58-.07-2.44-.07s-1.53,0-2.44.07a.5.5,0,0,1-.07-.67l.4,0c1.11-.14,1.3-.48,1.46-1.9s.28-3,.4-5.39c.09-1.58.23-3.5.23-4.92,0-1.09-.35-1.56-1.26-1.72l-.78-.14c-.14-.16-.12-.6.09-.67.69,0,1.32.07,2.18.07s1.63,0,2.49-.07a10.47,10.47,0,0,0,1.27,3.85l2.49,5.37c.18.39.81,1.72,1.11,2.25.38-.67.77-1.49,1.3-2.58l2.16-4.46a23.35,23.35,0,0,0,1.88-4.43c.63,0,1.31.07,1.82.07,1,0,1.78,0,2.43-.07a.4.4,0,0,1,.07.67l-.76.12c-1,.16-1.26.53-1.26,1.76,0,3.44.05,6.88.21,10.31.07,1.56.33,1.7,1.07,1.82Z" style="fill: #fff"/>
            <path d="M214.75,131.13c.23.09.21.58-.05.67-1,0-1.9-.07-2.83-.07-1.09,0-2.09,0-3.11.07-.19-.09-.28-.53,0-.67l.63-.11c.93-.17,1-.33,1-1.91v-9.5h-.05c-.63,1.28-.95,2-1.39,2.91l-2,4.08c-.79,1.63-2,4.21-2.37,5.3a.7.7,0,0,1-.6,0c-.4-1.26-1.4-3.53-1.93-4.69l-2-4.46c-.44-1-1.11-2.51-1.39-3.21h-.05l-.16,4c-.05,1.41-.14,3.48-.14,5.38,0,1.54,0,1.89,1,2.07l.77.14c.16.14.16.58,0,.67-.85,0-1.57-.07-2.43-.07s-1.54,0-2.44.07a.5.5,0,0,1-.07-.67l.39,0c1.12-.14,1.3-.48,1.47-1.9s.28-3,.39-5.39c.09-1.58.23-3.5.23-4.92,0-1.09-.34-1.56-1.25-1.72l-.79-.14c-.14-.16-.12-.6.09-.67.7,0,1.33.07,2.19.07s1.62,0,2.48-.07a10.31,10.31,0,0,0,1.28,3.85l2.48,5.37c.19.39.82,1.72,1.12,2.25.37-.67.76-1.49,1.3-2.58l2.16-4.46a24.71,24.71,0,0,0,1.88-4.43c.63,0,1.3.07,1.81.07,1,0,1.79,0,2.44-.07a.4.4,0,0,1,.07.67l-.77.12c-1,.16-1.25.53-1.25,1.76,0,3.44,0,6.88.21,10.31.07,1.56.32,1.7,1.07,1.82Z" style="fill: #fff"/>
            <path d="M222.43,118.36c0-1,0-1-.63-1h-1.3c-2.13,0-2.76.25-3.62,2.13a.58.58,0,0,1-.74-.16c.39-1.25.74-2.69.9-3.51a.3.3,0,0,1,.26-.09.27.27,0,0,1,.23.09c.12.58.44.61,2,.61H229c1.13,0,1.48-.07,1.76-.61a.76.76,0,0,1,.28-.09.35.35,0,0,1,.3.12,16.44,16.44,0,0,0-.35,3.69.56.56,0,0,1-.72.07c-.3-1.81-.74-2.25-3.22-2.25h-1.33c-.6,0-.63,0-.63,1v10c0,2.46.21,2.53,1.31,2.65l.83.09c.16.16.14.58,0,.67-1.34,0-2.39-.07-3.41-.07s-2.11,0-3.6.07a.5.5,0,0,1,0-.67l1-.11c1.09-.14,1.3-.17,1.3-2.63Z" style="fill: #fff"/>
            <path d="M248.21,124.12a7.88,7.88,0,0,1-8.18,8c-5.25,0-8.27-3.7-8.27-7.83a8,8,0,0,1,8.32-8.24A7.72,7.72,0,0,1,248.21,124.12Zm-13.29-.51c0,3.2,1.37,7.57,5.34,7.57,2.65,0,4.79-2,4.79-6.64,0-3.51-1.58-7.58-5.28-7.58C237.45,117,234.92,118.66,234.92,123.61Z" style="fill: #fff"/>
            <path d="M251.94,119.89c0-2.23,0-2.51-1.12-2.62l-.6-.07a.48.48,0,0,1,0-.65c1.47-.14,3.44-.21,5.35-.21a9.7,9.7,0,0,1,4.41.79,3.64,3.64,0,0,1,2,3.39,4,4,0,0,1-2.78,3.67c-.14.07-.1.25,0,.39,1.85,3.14,3,5.11,4.11,6a3.07,3.07,0,0,0,1.6.72.45.45,0,0,1,0,.46,6.3,6.3,0,0,1-1.54.14c-2.23,0-3.43-.9-4.85-3.07-.63-1-1.28-2.25-1.84-3.15a1.29,1.29,0,0,0-1.44-.79c-.69,0-.72,0-.72.51v3c0,2.46.21,2.53,1.3,2.67l.52.07a.5.5,0,0,1-.05.67c-1,0-2.07-.07-3.09-.07s-2.07,0-3.13.07a.45.45,0,0,1-.05-.67l.51-.07c1.09-.14,1.3-.21,1.3-2.67Zm2.69,3.34c0,.75,0,.79,1.12.79,2.27,0,3.32-1.11,3.32-3.32a3.2,3.2,0,0,0-3.21-3.43c-1.2,0-1.23.07-1.23,1.13Z" style="fill: #fff"/>
          </g>
        </g>
      </g>
    </g>
  </g>
</svg>
