<svg xmlns="http://www.w3.org/2000/svg" width="153" height="34" viewBox="0 0 153.1 34"><path fill="#707070" d="M7.2 12.1c.7 0 1.5.2 2.1.4-.3-.7-.4-1.3-.4-2 0-.9.1-1.6.4-2.4.4-.9.9-1.6 1.6-2.2C12 5 13.6 4.4 15 4.4c.7 0 1.8.1 2.7.5 1 .4 1.8 1 1.8 2.1 0 .7-.6 1.4-1.5 1.4-.5 0-.9-.2-1.1-.5-.4-.6-.1-1-.7-1.7-.4-.4-.9-.6-1.7-.6-1 0-1.8.3-2.6.7-.8.5-1.4 1.2-1.8 2.3-.5 1.5-.4 3.3.4 4.7.6 1 1 1.8 1 3 0 2.5-1.8 4.2-4.5 4.2-.6 0-1.2-.1-1.6-.2l-1 1.6c.4.8 1.3.9 2.7 1l2.7.2c1 .1 2 .4 2.7 1 .6.5 1 1.3 1 2.2 0 1.5-.6 2.7-1.6 3.6-1.1 1-2.6 1.6-4.6 1.6-1.5.1-3-.2-4-1C2.5 29.9 2 29 2 27.7c0-1.6 1.2-3 2.6-3.7-1-.4-1.6-1.3-1.7-2.1l1.7-2.2c-1.1-.7-1.8-1.9-1.8-3.5-.1-2.3 1.8-4.1 4.4-4.1zM5.5 24.6c-.9.5-1.5 1.7-1.5 2.7 0 2.1 1.8 3 3.6 3 1.2 0 2.4-.4 3.1-1 .6-.5 1-1.3 1-2.1 0-.7-.2-1.1-.5-1.4-.5-.5-1.3-.8-2.2-.8l-1.4-.1c-.7 0-1.2 0-2.1-.3zm3.9-8.3c0-2-1-3.2-2.3-3.2-1.3 0-2.3 1.3-2.3 3.3 0 2 1 3.3 2.3 3.3 1.3-.1 2.3-1.4 2.3-3.4zm5.9-2.6-.2-.7 4-1.1c.4 1.1.4 2.7.4 3.8v6c0 1.7 0 2.3 2.3 2.3v.7h-6.4v-.8c1.9 0 1.9-.5 1.9-2.2V15c0-.5.1-1.7-1.3-1.4l-.7.1zm11.2-1.9-3.3 1.1.2.8.6-.1c1.4-.4 1.3 1 1.3 1.4v6.7c0 1.7 0 2.2-1.9 2.2v.8h6.4v-.9c-2.3 0-2.3-.5-2.3-2.2v-6l.8-.7c.6-.5 1.1-1 1.8-1s1 .6 1.6.6c.7 0 1.2-.6 1.2-1.3 0-.8-.7-1.1-1.3-1.1-1 0-1.8.4-2.7 1.1l-1.5 1.2v-.3c0-.9-.3-1.7-.9-2.3zm14.6 4.8c0-1.3.1-2.7-.9-3.3-.3-.2-.7-.3-1.2-.3-1.3 0-2 .5-2.2 1.9 0 .2-.1.5-.2.7-.2.4-.5.5-1 .5-.7 0-1-.4-1-1.1 0-.5.2-.9.6-1.3 1.1-1 2.9-1.5 4.4-1.5 3.3 0 3.8 1.8 3.8 4.8v5c0 .7-.1 1.7.7 1.7.3 0 .8-.3 1.3-.6l.4.7-.4.3c-.8.5-1.5 1-2.5 1-1.3 0-1.6-1.1-1.7-1.9-.5.7-2 1.9-4.1 1.9-1.8 0-3.2-1-3.2-2.9 0-2.1 1.6-3.3 3.4-3.8l3.8-1v-.8zm0 5.3v-3.4l-2.4.7c-1.4.4-2.3 1.1-2.3 2.6 0 1 .8 1.8 1.8 1.8 1.3 0 2.2-.7 2.9-1.7zM58.7 3.2c-.6-.6-1.9-.8-2.7-.8-2 0-3.6.9-4.9 2.4-1.6 2-2 4.7-2 7v.3c-.4.5-1.1.8-2 .8v.8h2v7.7c0 1.7.1 2.4-1.8 2.4v.8h6.5v-.8c-2.3 0-2.4-.7-2.4-2.4v-7.6h3.4v-1.2h-3.5v-1.7c0-2.3-.2-5.1 1.9-6.7.5-.4 1.1-.6 1.7-.6 1 0 1.2.2 1.7.7.4.3.5.7 1 .8.4.1.8-.1 1.1-.4.4-.4.4-1.1 0-1.5zm8.8 0c-.6-.6-1.9-.8-2.7-.8-2 0-3.6.9-4.9 2.4-1.6 2-2 4.7-2 7v.3c-.4.5-1.1.8-2 .8v.8h2v7.7c0 1.7.1 2.4-1.8 2.4v.8h6.5v-.8c-2.3 0-2.4-.7-2.4-2.4v-7.6h3.4v-1.2h-3.4v-1.7c0-2.3-.2-5.1 1.9-6.7.5-.4 1.1-.6 1.7-.6 1 0 1.2.2 1.7.7.4.3.5.7 1 .8.4.1.8-.1 1.1-.4.3-.4.3-1.1-.1-1.5zm-.2 15.6c0 2.9 1.8 4.8 4.7 4.8.9 0 1.8-.2 2.7-.7l.4.7-.5.3c-1 .7-2.6 1-3.5 1-3.8 0-5.9-2-6-6-.1-3.4 1.8-6.9 5.6-6.9 1.4 0 2.5.5 3.3 1.4.7.8 1.2 1.9 1.2 3.2 0 .6.1 1.1 0 1.3l-.6.4h-7.2c-.1.1-.1.3-.1.5zm5.6-1.6c.2-.7.1-1.8-.3-2.7-.4-.7-1.2-1.3-2.2-1.3-2.2 0-3 2.2-3.1 4h5.6zm7.7-5.4-3.3 1.1.2.8.6-.1c1.4-.4 1.3 1 1.3 1.4v6.4c0 1.7 0 2.4-1.9 2.4v.8h6.4v-.8c-2.3 0-2.3-.7-2.3-2.4v-5.8l1.2-.8c1-.6 1.8-1.1 2.7-1.1 2.1 0 2.1 1.9 2.1 3.6v4.2c0 1.6 0 2.4-1.9 2.4v.8h6.5v-.8c-2.3 0-2.3-.8-2.3-2.4V17c0-1.7-.1-3.1-1-4-.6-.6-1.5-.8-2.3-.8-.9 0-1.9.2-3.1 1l-1.9 1.3v-.3c-.2-1-.5-1.8-1-2.4zM98 20l.1-6.3h3.5v-1.1h-3.5V9h-1.3c0 1.9-.8 3.8-3 4v.8l2-.1v6.9c0 2.2.3 4.5 3.1 4.5 1 0 1.9-.4 2.9-1l.5-.3-.4-.7c-.5.3-1.2.7-1.9.7-2.2-.2-2-1.9-2-3.8zm12.2-7.9c3.9 0 6.4 2.4 6.4 6.4 0 3.7-2.9 6.4-6.6 6.4-3.9 0-6.4-2.4-6.4-6.4 0-3.6 2.9-6.4 6.6-6.4zm-4.1 6.5c0 3.2 1.7 5.3 4 5.3s4-2.1 4-5.3c0-3.2-1.7-5.2-4-5.2-2.3-.1-4 2-4 5.2zm20-2c0-1.3.1-2.7-.9-3.3-.3-.2-.7-.3-1.2-.3-1.3 0-2 .5-2.2 1.9 0 .2-.1.5-.2.7-.2.4-.5.5-1 .5-.7 0-1-.4-1-1.1 0-.5.2-.9.6-1.3 1.1-1 2.9-1.5 4.4-1.5 3.3 0 3.8 1.8 3.8 4.8v5c0 .7-.1 1.7.7 1.7.3 0 .8-.3 1.3-.6l.4.7-.4.3c-.8.5-1.5 1-2.5 1-1.3 0-1.6-1.1-1.7-1.9-.5.7-2 1.9-4.1 1.9-1.8 0-3.2-1-3.2-2.9 0-2.1 1.6-3.3 3.4-3.8l3.8-1v-.8zm0 5.3v-3.4l-2.4.7c-1.4.4-2.3 1.1-2.3 2.6 0 1 .8 1.8 1.8 1.8 1.3 0 2.2-.7 2.9-1.7zm12.8 2.4c1-.7 1.6-1.6 1.6-2.9 0-1.4-.9-2.3-2-3-.9-.6-1.8-1.1-2.7-1.8-.6-.5-1.1-1.1-1.1-1.9 0-1.1.9-1.7 2-1.7.2 0 .5 0 .7.1.1.5.4.9.6 1.2.3.4.6.7 1 .8.3.1.7.1.9-.1.3-.2.6-.4.7-.8.1-.7-.4-1.1-1-1.4-.1 0-.4-.2-.6-.2-.6-.9-.7-1.9-.7-2.6 0-1 .4-1.8 1-2.3.7-.8 1.8-1.2 2.8-1.2 1.1 0 2.1.4 2.8 1.1.5.6.8 1.4.8 2.2 0 1.6-.9 3.2-2.8 3.3h-.3v.8l2-.1v6.9c0 2.2.3 4.5 3.1 4.5 1 0 1.8-.4 2.9-1l.5-.3-.4-.7c-.5.3-1.3.7-2 .7-2.1 0-1.9-1.7-1.8-3.6V14h3.5v-1.1h-3.5v-2.6c0-1.5-.4-2.7-1.2-3.4-.8-.8-2-1.3-3.6-1.3-1.3 0-2.7.5-3.6 1.5-.9.9-1.3 2.2-1.3 3.5 0 .5.1 1.1.2 1.6h-.6c-1.3 0-2.6.4-3.3 1.2-.5.5-.7 1.2-.7 1.8 0 1.6 1 2.6 2.2 3.5.6.4 2.3 1.6 2.3 1.6.7.6 1.3 1.2 1.3 2 0 1.3-1.3 1.9-2.5 1.9-1.5 0-2.6-1.3-2.7-2.9l-.8.1.2 3c1.1.5 2.3.8 3.6.8.5-.2 1.7-.4 2.5-.9z" class="gt-logo"/></svg>