<?xml version="1.0" encoding="UTF-8"?>
<!-- Generator: Adobe Illustrator 25.4.1, SVG Export Plug-In . SVG Version: 6.00 Build 0)  -->
<svg xmlns="http://www.w3.org/2000/svg" xmlns:xlink="http://www.w3.org/1999/xlink" version="1.1" x="0px" y="0px" viewBox="0 0 762.3 182.3" style="enable-background:new 0 0 762.3 182.3;" xml:space="preserve">
<style type="text/css">
	.st0{display:none;}
	.st1{display:inline;fill:#6E838E;}
	.st2{display:inline;fill:#F39332;}
	.st3{fill:#525258;}
	.st4{fill:#F39126;}
	.st5{clip-path:url(#SVGID_00000090295339500418608130000006598868772969998721_);fill:#525258;}
	.st6{clip-path:url(#SVGID_00000075859827022240140240000014111045516990502042_);fill:#525258;}
	.st7{clip-path:url(#SVGID_00000176003964339310200570000004603355001406787982_);fill:#525258;}
	.st8{clip-path:url(#SVGID_00000144305440280845657800000008523527313153131165_);fill:#525258;}
	.st9{clip-path:url(#SVGID_00000077293306262256937730000014436180003997131147_);fill:#525258;}
	.st10{clip-path:url(#SVGID_00000085208297871065407200000001753285810943256453_);fill:#525258;}
	.st11{clip-path:url(#SVGID_00000000220716265188030650000004634770246627568039_);fill:#525258;}
	.st12{clip-path:url(#SVGID_00000010311466773679436940000013789964635810944447_);fill:#525258;}
	.st13{clip-path:url(#SVGID_00000047030402705822050590000007494734183750083481_);fill:#525258;}
	.st14{clip-path:url(#SVGID_00000109015990065299339430000004274893192092867499_);fill:#525258;}
	.st15{clip-path:url(#SVGID_00000018203087804810959850000008235981934477261996_);fill:#525258;}
	.st16{clip-path:url(#SVGID_00000081615534482770540990000016455113102592746395_);fill:#525258;}
	.st17{clip-path:url(#SVGID_00000037654789796495175250000011422733287772815279_);fill:#525258;}
	.st18{clip-path:url(#SVGID_00000014619177586245663340000017172521447776228523_);fill:#525258;}
	.st19{clip-path:url(#SVGID_00000006674046821150581470000011510896821719578301_);fill:#525258;}
	.st20{clip-path:url(#SVGID_00000121982471540238930060000006453105375221385385_);fill:#525258;}
</style>
<g id="Ebene_1" class="st0">
	<circle class="st1" cx="756.9" cy="84.8" r="5.4"></circle>
	<circle class="st1" cx="736.7" cy="94.3" r="5.4"></circle>
	<circle class="st1" cx="716.8" cy="103.7" r="5.4"></circle>
	<circle class="st1" cx="696.3" cy="113.9" r="5.4"></circle>
	<circle class="st1" cx="676.2" cy="123.3" r="5.4"></circle>
	<circle class="st1" cx="655.7" cy="132.1" r="5.4"></circle>
	<circle class="st1" cx="737" cy="74.9" r="5.4"></circle>
	<circle class="st1" cx="717.2" cy="65" r="5.4"></circle>
	<circle class="st1" cx="697.3" cy="55.1" r="5.4"></circle>
	<circle class="st1" cx="677.5" cy="45.1" r="5.4"></circle>
	<circle class="st1" cx="657.7" cy="35.2" r="5.4"></circle>
	<circle class="st1" cx="637.8" cy="25.3" r="5.4"></circle>
	<circle class="st1" cx="618" cy="15.4" r="5.4"></circle>
	
		<ellipse transform="matrix(3.647048e-02 -0.9993 0.9993 3.647048e-02 570.8499 602.8884)" class="st1" cx="598.1" cy="5.4" rx="5.4" ry="5.4"></ellipse>
	<ellipse class="st1" cx="473.3" cy="62.1" rx="5.4" ry="5.4"></ellipse>
	<ellipse class="st1" cx="452.1" cy="71.2" rx="5.4" ry="5.4"></ellipse>
	<ellipse class="st1" cx="493" cy="53.9" rx="5.4" ry="5.4"></ellipse>
	
		<ellipse transform="matrix(0.2649 -0.9643 0.9643 0.2649 334.9292 528.1785)" class="st1" cx="513.9" cy="44.4" rx="5.4" ry="5.4"></ellipse>
	
		<ellipse transform="matrix(3.629642e-02 -0.9993 0.9993 3.629642e-02 479.0465 566.7719)" class="st1" cx="533.4" cy="35" rx="5.4" ry="5.4"></ellipse>
	
		<ellipse transform="matrix(3.629641e-02 -0.9993 0.9993 3.629641e-02 509.1868 578.5839)" class="st1" cx="554.6" cy="25.3" rx="5.4" ry="5.4"></ellipse>
	
		<ellipse transform="matrix(3.629641e-02 -0.9993 0.9993 3.629641e-02 538.7502 590.9699)" class="st1" cx="575.8" cy="16.1" rx="5.4" ry="5.4"></ellipse>
	<circle class="st2" cx="713.9" cy="82.5" r="6.7"></circle>
	<circle class="st2" cx="694.1" cy="94.8" r="6.7"></circle>
	<circle class="st2" cx="690.2" cy="70.6" r="6.7"></circle>
	<circle class="st2" cx="670.2" cy="105.1" r="6.7"></circle>
	<circle class="st2" cx="666.5" cy="58.6" r="6.7"></circle>
	<circle class="st2" cx="647.8" cy="117" r="6.7"></circle>
	<circle class="st2" cx="643.5" cy="46.7" r="6.7"></circle>
	<circle class="st2" cx="622" cy="130.9" r="6.7"></circle>
	<circle class="st2" cx="622.4" cy="36" r="6.7"></circle>
	<path class="st2" d="M599.8,31.3c-3.7-0.2-6.5-3.4-6.3-7.1s3.4-6.5,7.1-6.3c3.7,0.2,6.5,3.4,6.3,7.1S603.6,31.5,599.8,31.3   C599.9,31.3,599.8,31.3,599.8,31.3z"></path>
	
		<ellipse transform="matrix(3.943510e-02 -0.9992 0.9992 3.943510e-02 411.054 568.3781)" class="st2" cx="501.2" cy="70.4" rx="6.7" ry="6.7"></ellipse>
	
		<ellipse transform="matrix(3.943516e-02 -0.9992 0.9992 3.943516e-02 446.9587 582.2642)" class="st2" cx="526.3" cy="58.7" rx="6.7" ry="6.7"></ellipse>
	
		<ellipse transform="matrix(3.943516e-02 -0.9992 0.9992 3.943516e-02 483.1481 596.4758)" class="st2" cx="551.8" cy="46.9" rx="6.7" ry="6.7"></ellipse>
	
		<ellipse transform="matrix(3.943516e-02 -0.9992 0.9992 3.943516e-02 517.9099 610.3743)" class="st2" cx="576.4" cy="35.8" rx="6.7" ry="6.7"></ellipse>
	<circle class="st2" cx="668.3" cy="81.6" r="8.2"></circle>
	<circle class="st2" cx="644.6" cy="69.9" r="8.2"></circle>
	<circle class="st2" cx="646.4" cy="94.3" r="8.2"></circle>
	<circle class="st2" cx="623.9" cy="58.2" r="8.2"></circle>
	<circle class="st2" cx="622.1" cy="108.1" r="8.2"></circle>
	<circle class="st2" cx="601.7" cy="46.4" r="8.2"></circle>
	<circle class="st2" cx="553.2" cy="68.7" r="8.2"></circle>
	<circle class="st2" cx="578" cy="58.6" r="8.2"></circle>
	<path class="st1" d="M333.6,99.3c-2.1-4.4-5.6-7.9-9.8-10.3c-4.3-2.4-9.1-3.7-14-3.7h-20.9v52.2h20.4c7.2,0.1,14.1-2.6,19.3-7.5   c5.2-4.8,8.2-11.6,8-18.7C336.6,107.1,335.6,103,333.6,99.3z M322.4,124.2c-3.7,3.3-8.5,5.1-13.5,4.9H297V92.8h11.6   c5.1-0.1,9.9,1.8,13.6,5.3c3.7,3.4,5.7,8.3,5.6,13.3C328,116.2,326,120.9,322.4,124.2z"></path>
	<path class="st1" d="M278.8,99.3c-2.1-4.4-5.6-7.9-9.8-10.3c-4.3-2.4-9.1-3.7-14-3.7h-20.9v52.2h20.4c7.2,0.1,14.1-2.6,19.3-7.5   c5.2-4.8,8.2-11.6,8-18.7C281.8,107.1,280.8,103,278.8,99.3z M267.7,124.2c-3.7,3.3-8.5,5.1-13.5,4.9h-11.9V92.8h11.6   c5.1-0.1,9.9,1.8,13.6,5.3c3.7,3.4,5.7,8.3,5.6,13.3C273.3,116.2,271.3,120.9,267.7,124.2z"></path>
	<path class="st1" d="M107.9,99.3c-2.1-4.4-5.6-7.9-9.8-10.3c-4.3-2.4-9.1-3.7-14-3.7H63.2v52.2h20.4c7.2,0.1,14.1-2.6,19.3-7.5   c5.2-4.8,8.2-11.6,8-18.7C110.9,107.1,109.9,103,107.9,99.3z M96.7,124.2c-3.7,3.3-8.5,5.1-13.5,4.9H71.4V92.8H83   c5.1-0.1,9.9,1.8,13.6,5.3c3.7,3.4,5.7,8.3,5.6,13.3C102.3,116.2,100.3,120.9,96.7,124.2z"></path>
	<path class="st1" d="M445.7,137.7V129h35.6c2,0,3.9-0.7,5.3-2.1c2.9-2.7,3.1-7.2,0.4-10.1c-0.1-0.1-0.2-0.2-0.3-0.3   c-1.5-1.4-3.4-2.1-5.4-2.1h-21.6c-5.2,0.2-10.1-2.5-12.6-7.1c-1.3-2.2-2-4.8-2-7.4c0-8,6.4-14.4,14.4-14.5h36.3v8.5h-36   c-1.7,0-3.2,0.6-4.4,1.8c-1.2,1.1-1.8,2.7-1.8,4.3c0,3.4,2.7,6.2,6.1,6.2h0.1h22c6.3,0,11,2.6,14,7.9c1.4,2.4,2.1,5.1,2.1,7.8   c0.2,4.3-1.6,8.5-4.8,11.4c-3.2,2.9-7.4,4.5-11.7,4.4H445.7L445.7,137.7z"></path>
	<path class="st1" d="M152.9,95.1c1.1-1.1,2.6-1.7,4.2-1.7h24.8v-8.1h-25.1c-3.7,0-7.2,1.4-9.8,4.1c-2.6,2.5-4.1,6.1-4,9.7v38.5h8.1   v-23.4h17.4V106h-17.4v-6.8C151.1,97.6,151.8,96.1,152.9,95.1z"></path>
	<path class="st1" d="M352.7,95.1c1.1-1.1,2.6-1.7,4.2-1.7h24.8v-8.1h-25.1c-3.7,0-7.2,1.4-9.8,4.1c-2.6,2.5-4.1,6.1-4,9.7v25.6   c0.2,3.3,1.6,6.5,4,8.8c2.6,2.7,6.1,4.2,9.8,4.1h25.1v-8.1h-24.8c-1.6,0-3.1-0.6-4.2-1.7c-1.2-1-1.8-2.5-1.8-4.1l0,0v-9.5h17.4   v-8.3h-17.4v-6.7C350.9,97.6,351.5,96.1,352.7,95.1z"></path>
	<path class="st1" d="M513.6,95.1c1.1-1.1,2.6-1.7,4.2-1.7h24.8v-8.1h-25.1c-3.7,0-7.2,1.4-9.8,4.1c-2.6,2.5-4.1,6.1-4,9.7v25.6   c0.2,3.3,1.6,6.5,4,8.8c2.6,2.7,6.1,4.2,9.8,4.1h25.1v-8.1h-24.8c-1.6,0-3.1-0.6-4.2-1.7c-1.2-1-1.8-2.5-1.8-4.1l0,0v-9.5h17.4   v-8.3h-17.4v-6.7C511.8,97.6,512.5,96.1,513.6,95.1z"></path>
	<path class="st1" d="M197.4,95.1c1.1-1.1,2.6-1.7,4.2-1.7h24.8v-8.1h-25c-3.7,0-7.2,1.4-9.8,4.1c-2.6,2.5-4.1,6.1-4,9.7v25.6   c0.2,3.3,1.6,6.5,4,8.8c2.6,2.7,6.1,4.2,9.8,4.1h25.1v-8.1h-24.8c-1.6,0-3.1-0.6-4.2-1.7c-1.2-1-1.8-2.5-1.8-4.1l0,0v-9.5h17.4   v-8.3h-17.4v-6.7C195.7,97.6,196.3,96.1,197.4,95.1z"></path>
	<path class="st1" d="M429.9,129c-5.3,0-7.5-3.5-11.2-9l-3.5-5.8h8.4c5.2,0.2,10.1-2.5,12.6-7.1c1.3-2.2,2-4.8,2-7.4   c0-8-6.4-14.4-14.4-14.5h-33.2v52.2h8.1V93.7h24.8c1.7,0,3.2,0.6,4.4,1.8c1.2,1.1,1.8,2.7,1.8,4.3c0,3.4-2.7,6.2-6.1,6.2h-0.1   h-18.2v8.3l0,0l6.4,10.5c3.9,6.4,6.7,10.3,13.7,12.2c2.2,0.4,4.5,0.6,6.7,0.6h5.8v-8.5h-5.8C431.4,129,430.6,128.9,429.9,129z"></path>
	<path class="st1" d="M602.9,85.3h-8.1V129h-2.5c-5.3,0-7.5-3.5-11.2-9l-21.7-34.8h-8.6v52.3h8.1v-37.4l15.1,24.5   c3.9,6.4,6.7,10.3,13.7,12.2c2.2,0.4,4.5,0.6,6.7,0.6h8.3V85.3H602.9z"></path>
	<circle class="st1" cx="110.3" cy="133.2" r="4.2"></circle>
	<circle class="st1" cx="51" cy="133.2" r="4.2"></circle>
	<path class="st1" d="M43.6,137.4v-7.8h-5.7c-5.3,0-7-3-11.2-9.6l-2.9-4.7l-3.6-6.1l24-23.9H32.7l-20.6,20.6h-4V85.4H0v52.1h8.1   v-23.3h5.2l2.2,3.6l1.5,2.6h0.1l2.7,4.4c3.9,6.4,6.7,10.3,13.7,12.2c2.2,0.4,4.5,0.5,6.7,0.5L43.6,137.4z"></path>
</g>
<g id="Ebene_2">
	<polygon class="st3" points="14.5,126.8 14.5,153.2 90.3,109.3 67.6,96.1  "></polygon>
	<polygon class="st4" points="14.5,28.6 14.5,28.9 14.5,55.2 50.8,76.4 98.8,104.4 121.6,91.2  "></polygon>
	<g>
		<g>
			<defs>
				<rect id="SVGID_1_" x="14.5" y="28.6" width="733" height="124.8"></rect>
			</defs>
			<clipPath id="SVGID_00000064326688746144662470000002347974185867560322_">
				<use xlink:href="#SVGID_1_" style="overflow:visible;"></use>
			</clipPath>
			<path style="clip-path:url(#SVGID_00000064326688746144662470000002347974185867560322_);fill:#525258;" d="M161.1,144.3     c0,3.3-2.3,5.8-5.5,5.8h-7.1v-11.4h7.1C158.8,138.6,161.1,141,161.1,144.3 M164.2,144.2c0-5.1-3.6-8.6-8.6-8.6h-10.2v17.6h10.2     C160.6,153.1,164.2,149.3,164.2,144.2"></path>
		</g>
	</g>
	<rect x="169.7" y="135.5" class="st3" width="3.1" height="17.6"></rect>
	<g>
		<g>
			<defs>
				<rect id="SVGID_00000178168430007051961150000001442993933107333808_" x="14.5" y="28.6" width="733" height="124.8"></rect>
			</defs>
			<clipPath id="SVGID_00000008836472919814830820000012145178340380140206_">
				<use xlink:href="#SVGID_00000178168430007051961150000001442993933107333808_" style="overflow:visible;"></use>
			</clipPath>
			<path style="clip-path:url(#SVGID_00000008836472919814830820000012145178340380140206_);fill:#525258;" d="M192.6,153.1     c3.7,0,5.5-2.2,5.5-5.1c0-3.4-1.9-5.1-5.5-5.1h-8.1c-1.4,0-2.2-0.8-2.2-2.1c0-1.3,0.8-2.2,2.2-2.2h12.6v-3.1h-12.6     c-3.5,0-5.4,2.1-5.4,4.9c0,2.9,2.1,5,5.4,5h8.1c1.6,0,2.6,0.8,2.6,2.3c0,1.4-0.9,2.3-2.6,2.3h-13.2v3.1L192.6,153.1L192.6,153.1z     "></path>
		</g>
	</g>
	<polygon class="st3" points="202.3,135.6 202.3,138.6 209,138.6 209,153.1 212.1,153.1 212.1,138.6 218.8,138.6 218.8,135.6  "></polygon>
	<g>
		<g>
			<defs>
				<rect id="SVGID_00000103973199550560495760000016477227583951823754_" x="14.5" y="28.6" width="733" height="124.8"></rect>
			</defs>
			<clipPath id="SVGID_00000006667673791822034630000007985900744684201107_">
				<use xlink:href="#SVGID_00000103973199550560495760000016477227583951823754_" style="overflow:visible;"></use>
			</clipPath>
			<path style="clip-path:url(#SVGID_00000006667673791822034630000007985900744684201107_);fill:#525258;" d="M244.5,153.1     l-5.3-5.3c2.3-0.9,3.6-2.9,3.6-5.8c0-3.9-2.4-6.4-6.4-6.4h-12.6v17.6h3.1v-14.5h9.6c2.1,0,3.4,1.1,3.4,3.4s-1.2,3.5-3.4,3.5h-7.3     v2.7h6.6l4.4,4.9C240.2,153.1,244.5,153.1,244.5,153.1z"></path>
		</g>
	</g>
	<rect x="249.1" y="135.6" class="st3" width="3.1" height="17.6"></rect>
	<g>
		<g>
			<defs>
				<rect id="SVGID_00000059306744143670978330000009228170058244995759_" x="14.5" y="28.6" width="733" height="124.8"></rect>
			</defs>
			<clipPath id="SVGID_00000183219077376560864820000002783208436459714701_">
				<use xlink:href="#SVGID_00000059306744143670978330000009228170058244995759_" style="overflow:visible;"></use>
			</clipPath>
			<path style="clip-path:url(#SVGID_00000183219077376560864820000002783208436459714701_);fill:#525258;" d="M263.7,142.9v2.6h7.8     c1.7,0,2.7,0.8,2.7,2.3c0,1.7-1.6,2.3-3.8,2.3h-8.9v-11.5h8.6c2.3,0,3.8,0.3,3.8,2.1c0,1.5-0.8,2.1-2.6,2.1     C271.3,142.9,263.7,142.9,263.7,142.9z M277,140.1c0-3-2.3-4.6-5.7-4.6h-12.9v17.6h13.2c3.4,0,5.7-2.1,5.7-5.3     c0-2.1-1.2-3.5-2.8-4C275.9,143.4,277,142.3,277,140.1"></path>
		</g>
		<g>
			<defs>
				<rect id="SVGID_00000023965150241923214180000002156390419803540906_" x="14.5" y="28.6" width="733" height="124.8"></rect>
			</defs>
			<clipPath id="SVGID_00000103249046699666256630000001220360949671241887_">
				<use xlink:href="#SVGID_00000023965150241923214180000002156390419803540906_" style="overflow:visible;"></use>
			</clipPath>
			<path style="clip-path:url(#SVGID_00000103249046699666256630000001220360949671241887_);fill:#525258;" d="M299.3,145.4     c0,3.5-1.6,5-6.4,5s-6.4-1.5-6.4-5v-9.8h-3.2v9.8c0,5.4,2.7,8,9.5,8c6.8,0,9.5-2.6,9.5-8v-9.8h-3V145.4z"></path>
		</g>
	</g>
	<polygon class="st3" points="307.4,135.6 307.4,138.6 314.1,138.6 314.1,153.1 317.2,153.1 317.2,138.6 323.8,138.6 323.8,135.6     "></polygon>
	<rect x="328.9" y="135.6" class="st3" width="3.1" height="17.6"></rect>
	<g>
		<g>
			<defs>
				<rect id="SVGID_00000143578792593330817360000013437072244970502068_" x="14.5" y="28.6" width="733" height="124.8"></rect>
			</defs>
			<clipPath id="SVGID_00000067214259121691849690000018027139119435911329_">
				<use xlink:href="#SVGID_00000143578792593330817360000013437072244970502068_" style="overflow:visible;"></use>
			</clipPath>
			<path style="clip-path:url(#SVGID_00000067214259121691849690000018027139119435911329_);fill:#525258;" d="M355.9,144.3     c0,3.3-2.3,5.8-5.5,5.8h-4.3c-3.2,0-5.5-2.4-5.5-5.8c0-3.3,2.3-5.7,5.5-5.7h4.3C353.6,138.6,355.9,141,355.9,144.3 M359,144.2     c0-5.1-3.5-8.6-8.6-8.6h-4.3c-4.9,0-8.5,3.4-8.5,8.6c0,5.1,3.6,9,8.5,9h4.3C355.4,153.1,359,149.3,359,144.2"></path>
		</g>
		<g>
			<defs>
				<rect id="SVGID_00000181765549469801248360000010362476431796770747_" x="14.5" y="28.6" width="733" height="124.8"></rect>
			</defs>
			<clipPath id="SVGID_00000110467262434270804120000015528140168299631744_">
				<use xlink:href="#SVGID_00000181765549469801248360000010362476431796770747_" style="overflow:visible;"></use>
			</clipPath>
			<path style="clip-path:url(#SVGID_00000110467262434270804120000015528140168299631744_);fill:#525258;" d="M380.7,152.7     c0.4,0.4,0.9,0.7,1.4,0.7c0.9,0,1.5-0.7,1.5-1.8v-16.1h-2.9v12.9L368.3,136c-0.5-0.5-0.9-0.6-1.3-0.6c-1,0-1.6,0.7-1.6,1.8v16     h2.9v-12.9L380.7,152.7z"></path>
		</g>
		<g>
			<defs>
				<rect id="SVGID_00000100354232701496396280000006442540621706994338_" x="14.5" y="28.6" width="733" height="124.8"></rect>
			</defs>
			<clipPath id="SVGID_00000115512430946774253930000005684122008978640282_">
				<use xlink:href="#SVGID_00000100354232701496396280000006442540621706994338_" style="overflow:visible;"></use>
			</clipPath>
			<path style="clip-path:url(#SVGID_00000115512430946774253930000005684122008978640282_);fill:#525258;" d="M272.2,108     c0-2.7-2.2-4.8-4.9-4.8c-2.7,0-4.8,2.2-4.8,4.8c0,2.7,2.1,4.8,4.8,4.8C270.1,112.8,272.2,110.7,272.2,108"></path>
		</g>
		<g>
			<defs>
				<rect id="SVGID_00000160913547184817347990000004988502110614570676_" x="14.5" y="28.6" width="733" height="124.8"></rect>
			</defs>
			<clipPath id="SVGID_00000029764791722632456960000010578309944400926884_">
				<use xlink:href="#SVGID_00000160913547184817347990000004988502110614570676_" style="overflow:visible;"></use>
			</clipPath>
			<path style="clip-path:url(#SVGID_00000029764791722632456960000010578309944400926884_);fill:#525258;" d="M252.7,90.5     c0,7.2-5.1,12.4-12.2,12.4h-16.4V78.1h16.4C247.5,78.1,252.7,83.3,252.7,90.5 M262,90.1c0-12.6-9-21.3-21.6-21.3h-25.6v43.5h25.6     C253,112.3,262,102.7,262,90.1"></path>
		</g>
		<g>
			<defs>
				<rect id="SVGID_00000055687950349023795550000011520300199319764370_" x="14.5" y="28.6" width="733" height="124.8"></rect>
			</defs>
			<clipPath id="SVGID_00000049217722828435021870000017720852689560351665_">
				<use xlink:href="#SVGID_00000055687950349023795550000011520300199319764370_" style="overflow:visible;"></use>
			</clipPath>
			<path style="clip-path:url(#SVGID_00000049217722828435021870000017720852689560351665_);fill:#525258;" d="M209.1,108     c0-2.7-2.2-4.8-4.9-4.8c-2.7,0-4.8,2.2-4.8,4.8c0,2.7,2.1,4.8,4.8,4.8C206.9,112.8,209.1,110.7,209.1,108"></path>
		</g>
		<g>
			<defs>
				<rect id="SVGID_00000044885924332965954180000000447959126726384287_" x="14.5" y="28.6" width="733" height="124.8"></rect>
			</defs>
			<clipPath id="SVGID_00000011736611677695922970000014382950834759654535_">
				<use xlink:href="#SVGID_00000044885924332965954180000000447959126726384287_" style="overflow:visible;"></use>
			</clipPath>
			<path style="clip-path:url(#SVGID_00000011736611677695922970000014382950834759654535_);fill:#525258;" d="M194.5,112.3     l-26.7-22.2l25.9-21.3h-14l-20.1,17c-1.8,1.5-2.3,2.7-2.3,4.2c0,1.3,0.3,2.5,1.9,3.8l21.4,18.4L194.5,112.3L194.5,112.3z"></path>
		</g>
	</g>
	<rect x="145.4" y="68.7" class="st3" width="9.3" height="43.5"></rect>
	<g>
		<g>
			<defs>
				<rect id="SVGID_00000018203687323144520480000004431758420552616616_" x="14.5" y="28.6" width="733" height="124.8"></rect>
			</defs>
			<clipPath id="SVGID_00000152964237893905730980000005503718008416467104_">
				<use xlink:href="#SVGID_00000018203687323144520480000004431758420552616616_" style="overflow:visible;"></use>
			</clipPath>
			<path style="clip-path:url(#SVGID_00000152964237893905730980000005503718008416467104_);fill:#525258;" d="M747.5,107.3v-39     h-8.9v29l-28.5-27.4c-1.3-1.3-2.4-1.7-3.8-1.7c-2.9,0-4.7,2.1-4.7,5.5v38.6h8.9v-29l28.5,27.8c1.3,1.3,2.4,1.8,3.8,1.8     C745.6,112.9,747.5,110.8,747.5,107.3"></path>
		</g>
	</g>
	<path class="st3" d="M693.3,102.9H663V78.1h30.2v-9.3h-39.5v43.5h39.6V102.9z M668.5,93.8h23.1v-7.4h-23.1V93.8z"></path>
	<g>
		<g>
			<defs>
				<rect id="SVGID_00000032647040594387604540000016031768076588985518_" x="14.5" y="28.6" width="733" height="124.8"></rect>
			</defs>
			<clipPath id="SVGID_00000118386082479405242580000017957280028994314931_">
				<use xlink:href="#SVGID_00000032647040594387604540000016031768076588985518_" style="overflow:visible;"></use>
			</clipPath>
			<path style="clip-path:url(#SVGID_00000118386082479405242580000017957280028994314931_);fill:#525258;" d="M609.6,82.3     c0-2.7,1.6-4.2,4.2-4.2h31.5v-9.3h-31.5c-9,0-14,5.4-14,12.6c0,7.4,5.3,12.5,13.8,12.5h19.7c3.3,0,5.3,1.7,5.3,4.6     c0,2.8-1.9,4.5-5.3,4.5h-32.9v9.3h32.9c9.5,0,14.1-5.6,14.1-13.1c0-8.7-4.9-12.8-14.1-12.8h-19.6C611.3,86.5,609.6,85,609.6,82.3     "></path>
		</g>
		<g>
			<defs>
				<rect id="SVGID_00000139987665530691893800000002946696464223144600_" x="14.5" y="28.6" width="733" height="124.8"></rect>
			</defs>
			<clipPath id="SVGID_00000071560618210068431810000009409107204676331189_">
				<use xlink:href="#SVGID_00000139987665530691893800000002946696464223144600_" style="overflow:visible;"></use>
			</clipPath>
			<path style="clip-path:url(#SVGID_00000071560618210068431810000009409107204676331189_);fill:#525258;" d="M596.5,112.3     l-13.1-13.1c5.5-2.2,8.8-7.1,8.8-14.2c0-9.9-6-16.2-16.2-16.2h-31.6v43.5h9.3V78.1H576c4.4,0,7.1,2.5,7.1,7.1s-2.5,7.3-7.1,7.3     h-16.9v8h13.5l10.6,11.9L596.5,112.3L596.5,112.3z"></path>
		</g>
	</g>
	<path class="st3" d="M535.8,102.9h-30.3V78.1h30.2v-9.3h-39.5v43.5h39.6V102.9z M510.9,93.8H534v-7.4h-23.1L510.9,93.8L510.9,93.8z   "></path>
	<g>
		<g>
			<defs>
				<rect id="SVGID_00000098182942554027074120000004349410634303398314_" x="14.5" y="28.6" width="733" height="124.8"></rect>
			</defs>
			<clipPath id="SVGID_00000100352642429887317920000000106447201093129098_">
				<use xlink:href="#SVGID_00000098182942554027074120000004349410634303398314_" style="overflow:visible;"></use>
			</clipPath>
			<path style="clip-path:url(#SVGID_00000100352642429887317920000000106447201093129098_);fill:#525258;" d="M481.1,90.5     c0,7.2-5.1,12.4-12.2,12.4h-16.4V78.1h16.4C475.9,78.1,481.1,83.3,481.1,90.5 M490.4,90.1c0-12.6-9-21.3-21.6-21.3h-25.6v43.5     h25.6C481.4,112.3,490.4,102.7,490.4,90.1"></path>
		</g>
		<g>
			<defs>
				<rect id="SVGID_00000103267392839995608010000017575989458557740981_" x="14.5" y="28.6" width="733" height="124.8"></rect>
			</defs>
			<clipPath id="SVGID_00000104685901435752648340000008224983307600326056_">
				<use xlink:href="#SVGID_00000103267392839995608010000017575989458557740981_" style="overflow:visible;"></use>
			</clipPath>
			<path style="clip-path:url(#SVGID_00000104685901435752648340000008224983307600326056_);fill:#525258;" d="M428.1,90.5     c0,7.2-5.1,12.4-12.2,12.4h-16.4V78.1h16.4C423,78.1,428.1,83.3,428.1,90.5 M437.5,90.1c0-12.6-9-21.3-21.6-21.3h-25.6v43.5h25.6     C428.4,112.3,437.5,102.7,437.5,90.1"></path>
		</g>
	</g>
	<path class="st3" d="M381.8,102.9h-30.3V78.1h30.2v-9.3h-39.5v43.5h39.6V102.9z M356.9,93.8h23.1v-7.4h-23.1V93.8z"></path>
	<path class="st3" d="M331.9,86.5h-21v7.4h21V86.5z M333.7,78.1v-9.3h-37.5v43.5h9.3V78.1C305.4,78.1,333.7,78.1,333.7,78.1z"></path>
</g>
</svg>
