<?xml version="1.0" encoding="utf-8"?>
<!-- Generator: Adobe Illustrator 25.2.3, SVG Export Plug-In . SVG Version: 6.00 Build 0)  -->
<svg version="1.1" id="Ebene_1" xmlns="http://www.w3.org/2000/svg" xmlns:xlink="http://www.w3.org/1999/xlink" x="0px" y="0px"
	 viewBox="0 0 239.12 126.16" style="enable-background:new 0 0 239.12 126.16;" xml:space="preserve">
<style type="text/css">
	.st0{fill:#116CB3;}
</style>
<g>
	<path class="st0" d="M0,21.31c8.82-2.23,18.95-4.2,30.11-5.87v-3.96C18.38,14.26,8.19,17.58,0,21.31L0,21.31z"/>
	<path class="st0" d="M239.12,21.31C213.91,9.82,169.78,2.2,119.56,2.2C98.36,2.2,78.25,3.56,60.19,6v5.9
		c18.32-1.62,38.37-2.51,59.37-2.51C167.38,9.39,210.21,14.01,239.12,21.31L239.12,21.31z"/>
	<path d="M52.48,55.61L74.36,39.3c1.39-0.95,1.74-1.58,1.74-2.21c0-1.05-1.85-1.79-4.28-2.21v-2.21h21.99v2.53
		c-9.03,0.74-11.11,2.21-17.6,6.84l-8.91,6.31l24.77,26.94c1.16,1.26,2.43,1.68,5.79,1.58v2.53H69.15v-2.32
		c2.66-0.21,5.79-0.63,5.79-1.58c0-0.42-0.35-0.74-0.81-1.26L57.81,55.51l-5.33,3.79v13.68c0,3.26,0.7,3.89,6.48,3.89v2.53H33.85
		v-2.53c4.98,0,5.67-0.63,5.67-3.89V10.89c0-2.1-3.24-2.95-5.21-3.26V5.1C40.33,4.68,46.47,3,52.48,1.84V55.61L52.48,55.61z"/>
	<path d="M137.91,48.98l-2.78,0.21c-2.89-7.26-7.87-15.47-17.36-15.47c-4.05,0-7.99,2.95-7.99,6.95c0,3.58,6.6,6.31,15.39,10.31
		c7.18,3.26,14.93,6.84,14.93,14.94c0,11.68-10.65,14.94-21.76,14.94c-4.98,0-13.31-1.79-17.94-3.68L99.36,61.3l2.78-0.42
		c2.08,8.94,7.64,17.47,18.87,17.47c4.86,0,7.64-3.37,7.64-7.58c0-5.05-7.41-7.68-14.82-10.94c-7.41-3.16-14.82-7.05-14.82-14.63
		c0-9.68,11.57-14,20.6-14c5.9,0,11.81,1.68,18.29,3.89V48.98L137.91,48.98z"/>
	<path d="M160.83,41.83c1.85-1.79,3.59-3.05,6.95-3.16c11.81,0,18.52,9.79,18.52,22.73c0,8.73-2.66,16.94-12.39,16.94
		c-8.45,0-13.31-6.42-13.08-10.1V41.83L160.83,41.83z M141.61,36.88v2.53c2.78,0.32,6.25,0.53,6.25,3.68v49.04
		c0,3.58-0.92,4.31-6.25,4.42v2.53h26.28v-2.53c-6.13-0.11-7.06-0.84-7.06-4.42V77.29c3.59,2.74,9.03,3.58,13.2,3.58
		c15.63,0,25.23-10.73,25.23-24.2c0-10.94-5.9-25.47-20.49-25.47c-8.22,0-12.15,2.32-17.83,6.95V31.2L141.61,36.88L141.61,36.88z"/>
	<path d="M211.88,80.87c-4.98,0-8.91-3.58-8.91-8.1c0-4.52,3.93-8.1,8.91-8.1c4.98,0,8.91,3.58,8.91,8.1
		C220.79,77.29,216.85,80.87,211.88,80.87L211.88,80.87z"/>
	<g>
		<path d="M24.19,120.72h-1.55l-1.9-2.99c-1.24-1.95-1.58-2.03-2.7-2.03h-1.16v5.02h-1.31v-10.97h2.93c2.33,0,3.72,1.1,3.72,2.95
			c0,1.18-0.58,2.06-1.74,2.61c0.36,0.32,0.7,0.8,1.1,1.4L24.19,120.72z M16.88,114.52h1.48c1.13,0,2.48-0.31,2.48-1.81
			c0-1.15-0.89-1.79-2.51-1.79h-1.45V114.52z"/>
	</g>
	<polygon points="33.51,119.54 33.51,115.79 38.28,115.79 38.28,114.61 33.51,114.61 33.51,110.93 38.41,110.93 38.41,109.75 
		32.2,109.75 32.2,120.72 38.53,120.72 38.53,119.54 	"/>
	<path d="M56.49,118.56c-1.39,0.73-2.47,1.05-3.61,1.05c-2.61,0-4.43-1.79-4.43-4.35c0-2.5,1.86-4.38,4.32-4.38
		c1.2,0,2.34,0.31,3.61,0.98l0.37,0.19v-1.47l-0.15-0.07c-1.3-0.6-2.58-0.9-3.79-0.9c-2.82,0-5.74,2.11-5.74,5.64
		c0,3.2,2.5,5.61,5.82,5.61c1.26,0,2.59-0.35,3.83-1.01l0.13-0.07v-1.41L56.49,118.56z"/>
	<polygon points="73.54,109.75 73.54,114.58 67.06,114.58 67.06,109.75 65.75,109.75 65.75,120.72 67.06,120.72 67.06,115.76 
		73.54,115.76 73.54,120.72 74.85,120.72 74.85,109.75 	"/>
	<polygon points="83.45,109.75 83.45,110.93 87.38,110.93 87.38,120.72 88.7,120.72 88.7,110.93 92.62,110.93 92.62,109.75 	"/>
	<path d="M104.17,114.51c-1.11-0.42-2.08-0.78-2.08-1.91c0-1,0.84-1.75,1.96-1.75c0.68,0,1.2,0.18,2.22,0.76l0.37,0.21v-1.47
		l-0.13-0.07c-0.85-0.46-1.68-0.69-2.54-0.69c-1.8,0-3.26,1.36-3.26,3.03c0,1.96,1.48,2.53,2.79,3.03c1.18,0.45,2.19,0.84,2.19,2.1
		c0,1.05-0.84,1.84-1.96,1.84c-0.75,0-1.38-0.27-2.49-1.07l-0.4-0.29v1.58l0.11,0.07c0.96,0.64,1.91,0.96,2.82,0.96
		c1.84,0,3.29-1.37,3.29-3.12C107.08,115.6,105.54,115.02,104.17,114.51z"/>
	<path d="M120.85,109.82l-0.07-0.15h-0.76l-5.06,11.04h1.39l1.66-3.62h4.79l1.66,3.62h1.4L120.85,109.82z M122.26,115.92h-3.72
		l1.85-4.07L122.26,115.92z"/>
	<polygon points="142.92,109.75 142.92,118.48 135.35,109.75 134.3,109.75 134.3,120.72 135.61,120.72 135.61,111.99 143.12,120.63 
		143.2,120.72 144.23,120.72 144.23,109.75 	"/>
	<polygon points="167.85,109.75 164.55,118.01 161.22,109.75 160.64,109.75 157.29,118.02 154.05,109.91 153.99,109.75 
		152.62,109.75 157.03,120.82 157.58,120.82 160.93,112.41 164.27,120.82 164.81,120.82 169.21,109.75 	"/>
	<g>
		<path d="M183.13,108.96c0.5,0,0.93-0.42,0.93-0.93c0-0.5-0.42-0.92-0.93-0.92c-0.51,0-0.93,0.42-0.93,0.92
			C182.21,108.55,182.62,108.96,183.13,108.96z"/>
		<path d="M182.23,109.82l-0.07-0.15h-0.77l-5.06,11.04h1.39l1.66-3.62h4.79l1.66,3.62h1.39L182.23,109.82z M183.63,115.92h-3.72
			l1.85-4.07L183.63,115.92z"/>
		<path d="M180.42,108.96c0.51,0,0.93-0.42,0.93-0.93c0-0.51-0.41-0.92-0.93-0.92c-0.5,0-0.93,0.42-0.93,0.92
			C179.49,108.54,179.91,108.96,180.42,108.96z"/>
	</g>
	<g>
		<polygon points="196.99,109.75 195.68,109.75 195.68,120.72 202.17,120.72 202.17,119.54 196.99,119.54 		"/>
		<polygon points="208.33,110.93 212.26,110.93 212.26,120.72 213.57,120.72 213.57,110.93 217.5,110.93 217.5,109.75 
			208.33,109.75 		"/>
		<polygon points="227.43,119.54 227.43,115.79 232.2,115.79 232.2,114.61 227.43,114.61 227.43,110.93 232.32,110.93 
			232.32,109.75 226.12,109.75 226.12,120.72 232.45,120.72 232.45,119.54 		"/>
	</g>
</g>
</svg>
