<?xml version="1.0" encoding="utf-8"?>
<!-- Generator: Adobe Illustrator 27.5.0, SVG Export Plug-In . SVG Version: 6.00 Build 0)  -->
<svg version="1.1" id="Ebene_1" xmlns="http://www.w3.org/2000/svg" xmlns:xlink="http://www.w3.org/1999/xlink" x="0px" y="0px"
	 viewBox="0 0 260 260" style="enable-background:new 0 0 260 260;" xml:space="preserve">
<path d="M124.5,138.7c-1.9,0-3.5,1.5-3.5,3.5s1.5,3.5,3.5,3.5s3.5-1.5,3.5-3.5S126.4,138.7,124.5,138.7z M166.5,95.4V84.6
	c0-5.7-4.6-10.2-10.2-10.2c-1.8,0-3.5,0.4-4.9,1.3c-1.4-4.2-5.2-7.1-9.7-7.1c-1.8,0-3.5,0.4-4.9,1.3c-1.4-4.2-5.2-7.1-9.7-7.1
	c-2.9,0-5.4,1.2-7.3,3c-1.9-1.9-4.5-3-7.3-3c-5.7,0-10.2,4.6-10.2,10.2V87c-4.2,1.3-7.8,3.7-10.4,7.2c-8.3,1-14.2,2-18,3
	c-4.5-5.8-12.6-7.5-19-3.8l-17.4,10.2c-0.9,0.5-1.4,1.5-1.4,2.5s0.6,2,1.4,2.5l17.4,10.2c5.9,3.4,13.6,2.3,18.3-3
	c3.6,1,9.2,2,17.4,3c0.8,1.4,1.9,2.6,3,3.7l10.2,10.2c2.8,2.8,4.3,6.4,4.3,10.3v7.4h-1.4c-5.7,0-10.2,4.6-10.2,10.2
	c0,4.1,2.4,7.6,5.8,9.2v24.4c0,1.6,1.3,3,3,3h58.5c1.6,0,3-1.3,3-3V170c3.5-1.6,5.8-5.2,5.8-9.2c0-5.7-4.6-10.2-10.2-10.2h-1.4v-8.1
	c0-3.6,0.8-7.3,2.4-10.6c2.4-5,3.5-9.6,3.5-14c13-2.6,19.3-6.4,19.3-11.3C185.9,100,173.4,97,166.5,95.4z M156.3,80.2
	c2.5,0,4.4,1.9,4.4,4.4v11.7c0,2.5-2,4.4-4.4,4.4c-2.5,0-4.4-1.9-4.4-4.4V84.6C152,82.2,153.9,80.2,156.3,80.2z M141.7,74.4
	c2.5,0,4.4,1.9,4.4,4.4v14.7c0,2.5-1.9,4.4-4.4,4.4c-2.5,0-4.4-1.9-4.4-4.4V78.8C137.3,76.3,139.3,74.4,141.7,74.4z M127.1,68.5
	c2.5,0,4.4,1.9,4.4,4.4v14.4c-1.6-0.8-3.4-1.3-5.3-1.3h-3.5V72.9C122.7,70.5,124.6,68.5,127.1,68.5z M108,72.9
	c0-2.5,1.9-4.4,4.4-4.4c2.5,0,4.4,1.9,4.4,4.4v13.2H108V72.9z M88,112.6c-5.2-0.7-9.1-1.4-11.9-2.1c0.4-1.4,0.7-2.9,0.7-4.4
	c0-1.2-0.2-2.4-0.4-3.6c2.8-0.7,6.9-1.4,12.1-2.1c-0.6,1.9-0.9,4-0.9,6.1v1.5C87.5,109.6,87.7,111.1,88,112.6z M57.8,113.7l-13-7.6
	l13-7.6c5.8-3.4,13.1,0.8,13.1,7.6C70.9,112.8,63.6,117.1,57.8,113.7z M107.9,128.6l-10.2-10.2c-1.1-1.1-1.9-2.3-2.7-3.6
	c-1-2-1.6-4.4-1.6-6.7v-1.5c0-8,6.4-14.7,14.7-14.7h18.1c3.1,0,5.8,2.6,5.8,5.8c0,3.2-2.6,5.8-5.8,5.8h-17.5c-1.6,0-2.9,1.3-3,2.9
	c-0.1,1.6,1.2,2.9,2.8,3c13,0.8,19.6,12.6,16.3,22.8c-0.5,1.5,0.3,3.2,1.9,3.6c1.5,0.5,3.2-0.3,3.6-1.9c1.4-4.2,1.4-8.7,0.3-12.9
	c10.7-0.1,21.1-0.9,30-2.3c-0.2,3.2-1.1,6.6-2.9,10.4c-1.9,4.1-2.9,8.6-2.9,13v8.1h-41V143C113.9,137.6,111.7,132.5,107.9,128.6z
	 M166.5,160.7c0,2.5-1.9,4.4-4.4,4.4h-16.1c-1.6,0-3,1.3-3,3s1.3,3,3,3h14.7v20.5H108v-20.5h14.7c1.6,0,3-1.3,3-3s-1.3-3-3-3h-16.1
	c-2.5,0-4.4-1.9-4.4-4.4s1.9-4.4,4.4-4.4h55.6C164.6,156.3,166.5,158.3,166.5,160.7z M163.1,112.6c-9.8,1.8-22.1,2.8-34.6,2.8
	c-0.1,0-0.2,0-0.3,0c-1.3-2.2-2.9-4.2-4.7-5.8h2.6c4.8,0,8.9-2.9,10.8-7c1.4,0.8,3,1.2,4.7,1.2c2.2,0,4.2-0.7,5.9-1.9
	c1.8,2.9,5,4.8,8.7,4.8c3.8,0,7.3-2.1,9-5.4c10.2,2.2,13.9,4.5,14.7,5.4C179.3,107.6,175.2,110.4,163.1,112.6z"/>
</svg>
