<?xml version="1.0" encoding="utf-8"?>
<!-- Generator: Adobe Illustrator 22.0.1, SVG Export Plug-In . SVG Version: 6.00 Build 0)  -->
<svg version="1.1" id="LogoFull" xmlns="http://www.w3.org/2000/svg" xmlns:xlink="http://www.w3.org/1999/xlink" x="0px" y="0px"
	 width="299px" height="61px" viewBox="0 0 299 61" style="enable-background:new 0 0 299 61;" xml:space="preserve">
<style type="text/css">
	.st0{fill:#003E6E;}
</style>
<g>
	<g>
		<path class="st0" d="M16.9,39c-0.4,0-0.7,0-1,0c-2.2-0.1-3.4-0.7-4.7-2.5c-1-1.4-2-3.1-2.8-4.5c-0.5-0.8-1-1.1-2.4-1.1H5.1v4.4
			c0,2.4,0.2,2.5,2.5,2.7v0.8H0V38c2.3-0.2,2.5-0.4,2.5-2.7V23.9c0-2.4-0.2-2.5-2.4-2.7v-0.8h7.1c2.2,0,3.5,0.2,4.6,1
			c1.2,0.7,1.9,2,1.9,3.7c0,2.4-1.6,3.9-3.6,4.8c0.5,0.9,1.7,2.8,2.5,4.1c1.1,1.5,1.6,2.3,2.3,3c0.7,0.8,1.4,1.1,2,1.3
			C16.9,38.3,16.9,39,16.9,39z M6.4,29.8c1.4,0,2.4-0.2,3.1-0.8c1.1-0.9,1.5-1.9,1.5-3.5c0-3-2-4.1-4.1-4.1c-0.8,0-1.3,0.1-1.5,0.3
			c-0.2,0.1-0.3,0.4-0.3,1.2v6.9H6.4z"/>
		<path class="st0" d="M39.6,21.2c-1.7,0.1-2.4,0.5-2.5,1.7c-0.1,0.8-0.2,2-0.2,4.5v2.3c0,3.3-0.5,5.7-2.2,7.5c-1.3,1.4-3.2,2-5.1,2
			c-1.7,0-3.4-0.4-4.6-1.4c-1.7-1.3-2.5-3.4-2.5-6.7v-7c0-2.6-0.2-2.7-2.5-2.9v-0.8h7.5v0.8c-2.2,0.1-2.4,0.3-2.4,2.9v6.3
			c0,4.6,1.9,7.1,5.3,7.1c4,0,5.4-3.3,5.4-8v-2.1c0-2.5-0.1-3.7-0.2-4.6c-0.1-1.1-0.8-1.4-2.8-1.6v-0.8h6.8V21.2z"/>
		<path class="st0" d="M63.5,31c-1.7,0.2-1.8,0.4-1.8,2.1v2.4c0,1,0,1.9,0.2,2.7c-1.8,0.4-4.2,1-6.5,1c-6.3,0-10.6-3.9-10.6-9.4
			c0-6.5,5.3-9.7,11-9.7c2.4,0,4.6,0.6,5.6,0.8c0.1,1,0.2,2.6,0.4,4.5l-0.9,0.2C60.4,22,58.2,21,55.4,21c-4.3,0-7.5,3.2-7.5,8.3
			c0,4.1,2.4,8.8,7.9,8.8c1,0,1.9-0.2,2.5-0.5s0.9-0.7,0.9-1.8v-2.4c0-2.1-0.2-2.2-3-2.4v-0.8h7.4L63.5,31L63.5,31z"/>
		<path class="st0" d="M83.3,34.2c-0.2,1-0.7,3.6-1,4.5H68.4v-0.8c2.6-0.2,2.8-0.4,2.8-2.7V24c0-2.5-0.2-2.6-2.4-2.8v-0.8h12.7
			c0,0.7,0.2,2.6,0.3,4.1l-0.9,0.1c-0.3-1.1-0.6-1.8-0.9-2.4c-0.4-0.6-1.2-0.8-3.2-0.8h-2.1c-0.9,0-1,0.1-1,0.9v6.4h2.6
			c2.5,0,2.7-0.2,3.1-2.1h0.8V32h-0.8c-0.4-2-0.6-2.2-3-2.2h-2.7v5.3c0,1.3,0.2,1.9,0.7,2.3c0.6,0.3,1.6,0.4,2.9,0.4
			c2.1,0,2.9-0.2,3.6-0.9c0.5-0.6,1-1.6,1.4-2.7C82.3,34.2,83.3,34.2,83.3,34.2z"/>
		<path class="st0" d="M110.6,24.7c-0.2-1.1-0.4-1.7-0.8-2.3c-0.5-0.8-1.1-1-3.2-1h-2.1c-0.9,0-0.9,0.1-0.9,0.9V29h2.9
			c2.6,0,2.7-0.2,3.1-2.1h0.9v5.5h-0.9c-0.3-1.9-0.5-2.3-3.1-2.3h-2.9v5c0,2.4,0.2,2.6,2.8,2.8v0.8h-7.9v-0.8
			c2.3-0.2,2.5-0.4,2.5-2.8V24c0-2.5-0.2-2.6-2.4-2.8v-0.8h12.6c0,1,0.2,2.8,0.3,4.2L110.6,24.7z"/>
		<path class="st0" d="M131.5,34.2c-0.2,1-0.7,3.6-1,4.5h-13.9v-0.8c2.6-0.2,2.8-0.4,2.8-2.7V24c0-2.5-0.2-2.6-2.4-2.8v-0.8h12.7
			c0,0.7,0.2,2.6,0.3,4.1l-0.9,0.1c-0.3-1.1-0.6-1.8-0.9-2.4c-0.4-0.6-1.2-0.8-3.2-0.8h-1.9c-0.9,0-1,0.1-1,0.9v6.4h2.6
			c2.5,0,2.7-0.2,3.1-2.1h0.8V32h-0.8c-0.4-2-0.6-2.2-3-2.2h-2.7v5.3c0,1.3,0.2,1.9,0.7,2.3c0.6,0.3,1.6,0.4,2.9,0.4
			c2.1,0,2.9-0.2,3.6-0.9c0.5-0.6,1-1.6,1.4-2.7C130.7,34.2,131.5,34.2,131.5,34.2z"/>
		<path class="st0" d="M156.6,21.2c-2.3,0.2-2.5,0.3-2.5,2.7v11.3c0,2.4,0.2,2.5,2.5,2.7v0.8h-7.8v-0.8c2.4-0.2,2.7-0.3,2.7-2.7
			v-5.6h-9.7v5.6c0,2.4,0.2,2.5,2.6,2.7v0.8h-7.6v-0.8c2.2-0.2,2.5-0.3,2.5-2.7V23.9c0-2.4-0.2-2.5-2.6-2.7v-0.8h7.5v0.8
			c-2.2,0.2-2.4,0.3-2.4,2.7v4.5h9.7v-4.5c0-2.4-0.2-2.5-2.5-2.7v-0.8h7.6V21.2L156.6,21.2z"/>
		<path class="st0" d="M172,24.8c-0.5-1.8-1.3-3.8-3.8-3.8c-2.1,0-3.1,1.5-3.1,3c0,2,1.3,3,3.6,4.1c2.3,1.2,4.9,2.5,4.9,5.6
			c0,3-2.5,5.4-6.4,5.4c-1.2,0-2.1-0.2-2.8-0.4s-1.2-0.4-1.4-0.6c-0.2-0.6-0.6-3.1-0.7-4.5l0.8-0.2c0.4,1.8,1.8,4.7,4.7,4.7
			c2.1,0,3.3-1.3,3.3-3.4c0-2.1-1.5-3-3.7-4.2c-1.9-1-4.7-2.4-4.7-5.5c0-2.8,2.2-5.1,5.9-5.1c1.4,0,2.6,0.3,3.6,0.7
			c0.1,1,0.3,2.1,0.5,3.9L172,24.8z"/>
		<path class="st0" d="M193.4,34.2c-0.2,1-0.7,3.6-1,4.5h-13.9v-0.8c2.6-0.2,2.8-0.4,2.8-2.7V24c0-2.5-0.2-2.6-2.4-2.8v-0.8h12.7
			c0,0.7,0.2,2.6,0.3,4.1l-0.8,0.1c-0.3-1.1-0.6-1.8-0.9-2.4c-0.4-0.6-1.2-0.8-3.2-0.8h-2.1c-0.9,0-1,0.1-1,0.9v6.4h2.6
			c2.5,0,2.7-0.2,3.1-2.1h0.8V32h-0.8c-0.4-2-0.6-2.2-3-2.2h-2.7v5.3c0,1.3,0.2,1.9,0.7,2.3c0.6,0.3,1.6,0.4,2.9,0.4
			c2.1,0,2.9-0.2,3.6-0.9c0.5-0.6,1-1.6,1.4-2.7C192.5,34.2,193.4,34.2,193.4,34.2z"/>
		<path class="st0" d="M218.1,21.2c-1.6,0.1-2.2,0.4-2.4,1.7c-0.1,0.9-0.2,2.1-0.2,4.7V39h-0.9l-12.2-14.7h-0.1v7
			c0,2.6,0.1,3.9,0.2,4.7c0.2,1.4,0.8,1.8,2.7,1.9v0.8h-6.8v-0.8c1.6-0.1,2.3-0.5,2.5-1.8c0.1-0.9,0.2-2.2,0.2-4.8v-6.1
			c0-2.1-0.1-2.2-0.6-2.9c-0.6-0.7-1.2-0.9-2.5-1v-0.9h4.3l11.9,14h0.1v-6.7c0-2.6-0.1-3.9-0.2-4.7c-0.1-1.3-0.8-1.6-2.8-1.7v-0.9
			h6.8V21.2z"/>
		<path class="st0" d="M235.5,24.7c-0.2-1.1-0.4-1.7-0.8-2.3c-0.5-0.8-1.1-1-3.2-1h-2.1c-0.9,0-0.9,0.1-0.9,0.9V29h2.9
			c2.6,0,2.7-0.2,3.1-2.1h0.9v5.5h-0.9c-0.3-1.9-0.5-2.3-3.1-2.3h-2.9v5c0,2.4,0.2,2.6,2.8,2.8v0.8h-7.9v-0.8
			c2.3-0.2,2.5-0.4,2.5-2.8V24c0-2.5-0.2-2.6-2.4-2.8v-0.8h12.6c0,1,0.2,2.8,0.3,4.2L235.5,24.7z"/>
		<path class="st0" d="M256.4,34.2c-0.2,1-0.7,3.6-1,4.5h-13.9v-0.8c2.6-0.2,2.8-0.4,2.8-2.7V24c0-2.5-0.2-2.6-2.4-2.8v-0.8h12.7
			c0,0.7,0.2,2.6,0.3,4.1l-0.9,0.1c-0.3-1.1-0.6-1.8-0.9-2.4c-0.4-0.6-1.2-0.8-3.2-0.8h-2.1c-0.9,0-1,0.1-1,0.9v6.4h2.6
			c2.5,0,2.7-0.2,3.1-2.1h0.8V32h-0.8c-0.4-2-0.6-2.2-3-2.2h-2.7v5.3c0,1.3,0.2,1.9,0.7,2.3c0.6,0.3,1.6,0.4,2.9,0.4
			c2.1,0,2.9-0.2,3.6-0.9c0.5-0.6,1-1.6,1.4-2.7C255.4,34.2,256.4,34.2,256.4,34.2z"/>
		<path class="st0" d="M275.5,34.2c-0.2,0.9-0.7,3.6-1.1,4.5h-12.9v-0.8c2.4-0.2,2.6-0.4,2.6-2.8V24c0-2.4-0.2-2.5-2.5-2.7v-0.9h7.6
			v0.8c-2.3,0.1-2.5,0.3-2.5,2.7V35c0,1.5,0.1,2.1,0.7,2.3c0.6,0.3,1.5,0.4,2.7,0.4c1.5,0,2.5-0.2,3.2-0.9c0.5-0.6,1-1.5,1.5-2.8
			L275.5,34.2z"/>
		<path class="st0" d="M288.6,20.4c3.6,0,6.3,0.7,8.1,2.4c1.4,1.3,2.4,3.4,2.4,6c0,3.4-1.4,5.9-3.5,7.5s-5,2.3-8.5,2.3h-6.9V38
			c2.5-0.2,2.7-0.4,2.7-2.8V24c0-2.4-0.2-2.5-2.4-2.7v-0.9H288.6z M285.4,35c0,2.2,0.9,2.7,3,2.7c5.3,0,7.8-3.9,7.8-8.4
			c0-2.9-1.1-5.4-3.3-6.7c-1.3-0.8-2.9-1.2-4.9-1.2c-1.2,0-2,0.2-2.3,0.4c-0.3,0.2-0.4,0.5-0.4,1.6L285.4,35L285.4,35z"/>
	</g>
</g>
</svg>
