<svg width="79px" height="19px" viewBox="0 0 79 19" version="1.1" xmlns="http://www.w3.org/2000/svg" xmlns:xlink="http://www.w3.org/1999/xlink">
    <title>Stilwerk shop logo</title>
    <desc>Stilwerk shop base logo</desc>
    <defs>
        <polygon id="path-1" points="0.0002 0 78.281 0 78.281 18.066 0.0002 18.066"></polygon>
    </defs>
    <g id="Symbols" stroke="none" stroke-width="1" fill="none" fill-rule="evenodd">
        <g id="logo/stilwer_shop" transform="translate(0.000000, -6.000000)">
            <g id="Group-3" transform="translate(0.000000, 6.000000)">
                <mask id="mask-2" fill="white">
                    <use xlink:href="#path-1"></use>
                </mask>
                <g id="Clip-2"></g>
                <path d="M48.1572,12.125 C48.3662,14.363 50.2372,15.529 51.7362,15.529 C53.0992,15.529 54.4832,14.937 55.2192,13.682 L57.5522,15.014 C56.2822,16.953 54.3432,18.066 51.7222,18.066 C48.2132,18.066 45.0512,15.664 45.0512,11.435 C45.0512,7.194 48.0412,4.802 51.4132,4.802 C54.9252,4.802 57.9122,7.239 57.9152,12.125 L48.1572,12.125 Z M48.3022,9.841 L54.6562,9.841 C54.2132,8.088 52.8982,7.155 51.4272,7.155 C50.0532,7.155 48.7672,7.976 48.3022,9.841 L48.3022,9.841 Z M11.1622,7.023 L11.1622,5.16 L12.9952,5.16 L12.9952,1.516 L15.9962,1.516 L15.9962,5.16 L22.0902,5.16 L22.0902,17.686 L15.7702,17.686 C14.2382,17.686 12.9952,16.449 12.9952,14.924 L12.9952,7.291 L11.1812,7.291 L9.3322,8.818 C8.6382,7.951 7.4912,7.092 5.8622,7.082 C4.4252,7.073 3.6072,7.606 3.5582,8.413 C3.5202,9.056 4.0572,9.541 5.0802,9.738 C6.1032,9.937 7.3732,10.171 8.2262,10.366 C10.4632,10.88 11.5572,12.018 11.5622,13.903 C11.5672,15.813 9.7102,18.043 6.0372,18.043 C2.9682,18.043 1.0382,16.879 0.0002,15.851 L1.9992,14.229 C3.5682,15.574 4.9872,15.723 5.9472,15.685 C7.1242,15.638 8.1352,15.132 8.3012,14.418 C8.5162,13.488 7.6402,13.095 6.9352,12.948 C6.6362,12.887 5.3022,12.624 4.4052,12.435 C2.6332,12.061 0.7422,11.128 0.5532,9.313 C0.3162,7.031 2.0942,5.021 5.3552,4.819 C8.0232,4.655 9.9262,5.674 11.1622,7.023 L11.1622,7.023 Z M19.0952,15.279 L19.0952,7.291 L15.9962,7.291 L15.9962,14.293 C15.9962,14.838 16.4392,15.279 16.9862,15.279 L19.0952,15.279 Z M32.7662,13.728 L32.8952,13.728 L35.1852,5.16 L37.8972,5.16 L40.1622,13.728 L40.2922,13.728 L42.4832,5.16 L45.6512,5.16 L41.8502,17.686 L38.8342,17.686 L36.5932,9.608 L36.5122,9.608 L34.1462,17.686 L31.1312,17.686 L27.4562,5.16 L30.6242,5.16 L32.7662,13.728 Z M69.0472,0 L69.0472,9.945 L73.9542,5.16 L77.8032,5.16 L72.9972,9.945 L78.2812,17.686 L74.6072,17.686 L70.8082,12.074 L69.0472,13.803 L69.0472,17.686 L66.0532,17.686 L66.0532,8.2 C65.1872,7.7 63.9612,7.803 63.1382,8.483 C62.2292,9.234 61.9032,10.127 61.9032,12.082 L61.9032,17.686 L58.8672,17.686 L58.8672,5.16 L61.9032,5.16 L61.9032,6.945 L61.9962,6.944 C62.3922,6.229 63.3032,4.917 65.9112,4.851 L66.0532,4.849 L66.0532,0 L69.0472,0 Z M24.1172,17.686 L27.1602,17.686 L27.1602,0 L24.1172,0 L24.1172,17.686 Z M19.0962,3.031 L22.0902,3.031 L22.0902,0 L19.0962,0 L19.0962,3.031 Z" id="Fill-1" fill="#231F20" mask="url(#mask-2)"></path>
            </g>
        </g>
    </g>
</svg>