<?xml version="1.0" encoding="utf-8"?>
<!-- Generator: Adobe Illustrator 27.5.0, SVG Export Plug-In . SVG Version: 6.00 Build 0)  -->
<svg version="1.1" id="Ebene_1" xmlns="http://www.w3.org/2000/svg" xmlns:xlink="http://www.w3.org/1999/xlink" x="0px" y="0px"
	 viewBox="0 0 260 260" style="enable-background:new 0 0 260 260;" xml:space="preserve">
<g>
	<path d="M116,151.5h10.5V162H116V151.5z"/>
	<path d="M133.5,151.5H144V162h-10.5V151.5z"/>
	<path d="M116,172.5h10.5V183H116V172.5z"/>
	<path d="M133.5,172.5H144V183h-10.5V172.5z"/>
	<path d="M144.4,109.5c-0.4-1.3-1.5-2.2-2.8-2.4l-5.8-0.8l-2.6-5.2c-0.8-1.7-2.9-2.5-4.7-1.6c-0.7,0.3-1.3,0.9-1.6,1.6l-2.6,5.2
		l-5.8,0.8c-1.9,0.3-3.2,2.1-2.9,4c0.1,0.7,0.4,1.3,0.9,1.8l4.2,4.1l-1,5.8c-0.3,1.9,1,3.7,2.9,4c0.8,0.1,1.5,0,2.2-0.4l5.2-2.7
		l5.2,2.7c1.7,0.9,3.8,0.2,4.7-1.5c0.4-0.7,0.5-1.4,0.4-2.2l-1-5.8l4.2-4.1C144.4,112.1,144.8,110.7,144.4,109.5z M133.1,113.4
		c-0.8,0.8-1.2,2-1,3.1v0.6l-0.5-0.3c-1-0.5-2.3-0.5-3.3,0l-0.5,0.3v-0.6c0.2-1.1-0.2-2.3-1-3.1l-0.2-0.5h0.6
		c1.1-0.2,2.1-0.9,2.6-1.9l0.3-0.6l0.3,0.6c0.5,1,1.5,1.7,2.6,1.9h0.6L133.1,113.4z"/>
	<path d="M199.5,211.4L144,21l-7,2l52.2,177.9c-9.8-4.7-20.3-7.8-31.2-8.9v-54.4c0-1.9-1.6-3.5-3.5-3.5h-49c-1.9,0-3.5,1.6-3.5,3.5
		v54.4c-10.8,1.2-21.4,4.2-31.2,8.9L123,23l-7-2L60.5,211.4c-0.3,1-0.5,2.1-0.5,3.1c0,15.9,36,24.5,70,24.5s70-8.6,70-24.5
		C200,213.4,199.8,212.4,199.5,211.4L199.5,211.4z M109,141h42v73.5h-7V197c0-1.9-1.6-3.5-3.5-3.5h-21c-1.9,0-3.5,1.6-3.5,3.5v17.5
		h-7V141z M137,200.5v14h-14v-14H137z M130,232c-39,0-63-10.2-63-17.5c0-5.1,12.2-12.1,35-15.5v19c0,1.9,1.6,3.5,3.5,3.5h49
		c1.9,0,3.5-1.6,3.5-3.5v-19c22.8,3.5,35,10.5,35,15.5C193,221.8,169,232,130,232z"/>
</g>
</svg>
