<?xml version="1.0" encoding="utf-8"?>
<!-- Generator: Adobe Illustrator 26.3.1, SVG Export Plug-In . SVG Version: 6.00 Build 0)  -->
<svg version="1.1" id="Layer_1" xmlns="http://www.w3.org/2000/svg" xmlns:xlink="http://www.w3.org/1999/xlink" x="0px" y="0px"
	 viewBox="0 0 320 320" style="enable-background:new 0 0 320 320;" xml:space="preserve">
<style type="text/css">
	.st0{fill:#010101;}
</style>
<g>
	<path d="M160,0C71.8,0,0,71.8,0,160s71.8,160,160,160s160-71.8,160-160S248.2,0,160,0z M160,315.2C74.3,315.2,4.8,245.7,4.8,160
		S74.3,4.8,160,4.8S315.2,74.3,315.2,160S245.7,315.2,160,315.2z"/>
</g>
<g>
	<g>
		<g>
			<path class="st0" d="M248.4,250.3H72.3c-1.1,0-1.9-0.9-1.9-1.9c0-1.1,0.9-1.9,1.9-1.9h176.2c1.1,0,1.9,0.9,1.9,1.9
				C250.4,249.4,249.5,250.3,248.4,250.3z"/>
		</g>
		<g>
			<path class="st0" d="M225.5,104.7H95.3c-1.1,0-1.9-0.9-1.9-1.9V72.2c0-1.1,0.9-1.9,1.9-1.9h130.2c1.1,0,1.9,0.9,1.9,1.9v30.6
				C227.4,103.9,226.5,104.7,225.5,104.7z M97.2,100.9h126.4V74.1H97.2V100.9z"/>
		</g>
		<g>
			<path class="st0" d="M210.1,250.3h-99.6c-1.1,0-1.9-0.9-1.9-1.9V102.8c0-1.1,0.9-1.9,1.9-1.9h99.6c1.1,0,1.9,0.9,1.9,1.9v145.5
				C212.1,249.4,211.2,250.3,210.1,250.3z M112.5,246.4h95.7V104.7h-95.7V246.4z"/>
		</g>
		<g>
			<g>
				<path class="st0" d="M83.8,250.3c-1.1,0-1.9-0.9-1.9-1.9v-46c0-1.1,0.9-1.9,1.9-1.9c1.1,0,1.9,0.9,1.9,1.9v46
					C85.7,249.4,84.8,250.3,83.8,250.3z"/>
			</g>
			<g>
				<path class="st0" d="M83.8,204.3c-7.4,0-13.4-6-13.4-13.4c0-7.4,6-13.4,13.4-13.4c7.4,0,13.4,6,13.4,13.4
					C97.2,198.3,91.2,204.3,83.8,204.3z M83.8,181.3c-5.3,0-9.6,4.3-9.6,9.6c0,5.3,4.3,9.6,9.6,9.6c5.3,0,9.6-4.3,9.6-9.6
					C93.3,185.6,89,181.3,83.8,181.3z"/>
			</g>
		</g>
		<g>
			<g>
				<path class="st0" d="M237,250.3c-1.1,0-1.9-0.9-1.9-1.9v-46c0-1.1,0.9-1.9,1.9-1.9c1.1,0,1.9,0.9,1.9,1.9v46
					C238.9,249.4,238,250.3,237,250.3z"/>
			</g>
			<g>
				<path class="st0" d="M237,204.3c-7.4,0-13.4-6-13.4-13.4c0-7.4,6-13.4,13.4-13.4c7.4,0,13.4,6,13.4,13.4
					C250.4,198.3,244.3,204.3,237,204.3z M237,181.3c-5.3,0-9.6,4.3-9.6,9.6c0,5.3,4.3,9.6,9.6,9.6c5.3,0,9.6-4.3,9.6-9.6
					C246.5,185.6,242.2,181.3,237,181.3z"/>
			</g>
		</g>
		<g>
			<g>
				<path class="st0" d="M145,146.9h-15.3c-1.1,0-1.9-0.9-1.9-1.9v-15.3c0-1.1,0.9-1.9,1.9-1.9H145c1.1,0,1.9,0.9,1.9,1.9v15.3
					C147,146,146.1,146.9,145,146.9z M131.6,143h11.5v-11.5h-11.5V143z"/>
			</g>
			<g>
				<path class="st0" d="M191,146.9h-15.3c-1.1,0-1.9-0.9-1.9-1.9v-15.3c0-1.1,0.9-1.9,1.9-1.9H191c1.1,0,1.9,0.9,1.9,1.9v15.3
					C192.9,146,192.1,146.9,191,146.9z M177.6,143h11.5v-11.5h-11.5V143z"/>
			</g>
		</g>
		<g>
			<g>
				<path class="st0" d="M145,181.3h-15.3c-1.1,0-1.9-0.9-1.9-1.9v-15.3c0-1.1,0.9-1.9,1.9-1.9H145c1.1,0,1.9,0.9,1.9,1.9v15.3
					C147,180.5,146.1,181.3,145,181.3z M131.6,177.5h11.5V166h-11.5V177.5z"/>
			</g>
			<g>
				<path class="st0" d="M191,181.3h-15.3c-1.1,0-1.9-0.9-1.9-1.9v-15.3c0-1.1,0.9-1.9,1.9-1.9H191c1.1,0,1.9,0.9,1.9,1.9v15.3
					C192.9,180.5,192.1,181.3,191,181.3z M177.6,177.5h11.5V166h-11.5V177.5z"/>
			</g>
		</g>
		<g>
			<g>
				<path class="st0" d="M145,215.8h-15.3c-1.1,0-1.9-0.9-1.9-1.9v-15.3c0-1.1,0.9-1.9,1.9-1.9H145c1.1,0,1.9,0.9,1.9,1.9v15.3
					C147,214.9,146.1,215.8,145,215.8z M131.6,212h11.5v-11.5h-11.5V212z"/>
			</g>
			<g>
				<path class="st0" d="M191,215.8h-15.3c-1.1,0-1.9-0.9-1.9-1.9v-15.3c0-1.1,0.9-1.9,1.9-1.9H191c1.1,0,1.9,0.9,1.9,1.9v15.3
					C192.9,214.9,192.1,215.8,191,215.8z M177.6,212h11.5v-11.5h-11.5V212z"/>
			</g>
		</g>
	</g>
</g>
</svg>
