<svg width="209" height="40" viewBox="0 0 209 40" fill="none" xmlns="http://www.w3.org/2000/svg">
<g clip-path="url(#clip0_1457_26664)">
<g clip-path="url(#clip1_1457_26664)">
<path d="M197.41 20.7934L196.588 17.0843H199.988L200.48 19.0963L201.018 18.4972C202.026 17.3822 203.274 16.77 204.528 16.77H204.56C206.904 16.7785 208.092 17.7446 208.651 20.1088L208.675 20.2152L205.071 20.8993L205.041 20.8104C204.835 20.2203 204.506 19.6161 203.57 19.6139C202.273 19.6139 201.412 21.4752 201.354 22.1151L201.347 22.1933L201.356 31.5549H197.418L197.41 20.7934Z" fill="black"/>
<path d="M190.499 31.8486C186.575 31.835 184.416 29.5184 184.412 25.3183L184.406 22.9365C184.403 18.9013 186.381 16.9346 190.454 16.9346H190.501C194.536 16.947 196.337 18.7982 196.341 22.9331V25.3443L188.344 25.346L188.351 25.4525C188.351 26.6054 188.351 28.998 190.523 29.0076C192.403 29.0053 194.218 28.8683 195.647 28.6242L195.76 28.6061L195.969 31.1736L195.878 31.1951C193.823 31.63 192.023 31.848 190.537 31.848H190.499V31.8486ZM190.457 19.7416C189.524 19.7416 188.92 20.0542 188.613 20.6986C188.344 21.2473 188.344 21.9416 188.344 22.4541V23.4043L192.506 23.4015V22.4495C192.506 21.3125 192.506 19.7495 190.469 19.7422V19.6368L190.457 19.7416Z" fill="black"/>
<path d="M179.344 12.348L183.283 12.3452L183.288 31.546H179.354L179.344 12.348Z" fill="black"/>
<path d="M164.682 31.6912C162.204 31.6849 161.144 30.5405 161.144 27.8694L161.133 19.9171L159.067 19.9205L159.064 17.079L161.13 17.0773V13.5148L165.069 12.3777V17.0733L169.994 17.0699V13.5114L173.928 12.3721V17.0682H178.27V19.9092L173.93 19.9126L173.937 27.623C173.937 28.3298 174.377 28.7726 175.084 28.7754C175.541 28.7754 176.03 28.7041 176.552 28.6316C176.837 28.5885 177.132 28.5455 177.432 28.5149L177.536 28.5047L177.984 31.2064L177.877 31.2217C177.671 31.2517 177.464 31.2823 177.253 31.3157C176.092 31.4975 174.888 31.6844 173.571 31.6844H173.545C171.064 31.6815 170.005 30.5371 170.001 27.8637L169.994 19.9126H165.069L165.078 27.6253C165.078 28.336 165.521 28.7771 166.222 28.7771C166.681 28.7771 167.177 28.7097 167.692 28.6321C167.978 28.5948 168.273 28.5512 168.577 28.5172L168.677 28.5064L169.128 31.2098L169.021 31.2263C168.819 31.2557 168.612 31.2857 168.402 31.3214C167.238 31.5003 166.033 31.6895 164.715 31.6895H164.682V31.6912Z" fill="black"/>
<path d="M154.018 17.0913H154.587L157.95 17.0845L157.965 31.5574L154.027 31.5619L154.018 17.0913Z" fill="black"/>
<path d="M158.216 13.1934C158.216 14.4273 157.219 15.4296 155.99 15.4296C155.056 15.4296 154.257 14.8475 153.926 14.0309C153.823 13.7721 153.764 13.4929 153.764 13.1934C153.764 11.9623 154.76 10.9634 155.989 10.9634C157.22 10.9634 158.216 11.9617 158.216 13.1934Z" fill="black"/>
<path d="M141.955 11.478H146.233L146.236 28.6175L152.979 28.6147L152.982 31.5616L141.955 31.5661V11.478Z" fill="black"/>
<path d="M10.6658 31.1399C9.4925 31.4587 7.99979 31.6478 6.76248 31.6478L1.96781 18.6659C1.46043 18.4111 0.603651 18.2208 0 18.1251C0 17.4898 0.0951348 16.7276 0.22368 16.2847C1.07989 16.2847 2.2215 16.3476 3.55509 16.3476C4.57042 16.3476 6.03141 16.2847 8.09549 16.2847C8.28406 16.8556 8.31578 17.4898 8.25405 18.1251L6.12655 18.6971L8.69914 25.9975L8.72802 28.6313H8.82712L12.2208 18.6654L9.99988 18.1246C9.99988 17.4892 10.0961 16.727 10.253 16.2842C11.4286 16.2842 12.7293 16.347 14.3795 16.347C15.2057 16.347 16.1264 16.3148 17.0472 16.2842C17.2041 16.855 17.268 17.4892 17.2041 18.1246C16.6349 18.4105 15.935 18.5697 15.2702 18.6654L10.6658 31.1399Z" fill="black"/>
<path d="M26.8253 27.8716V24.3165C24.8887 24.5373 23.0788 25.0147 22.7306 25.3001C22.35 25.6166 22.0952 26.4411 22.0952 27.0131C22.0952 28.029 22.794 28.9826 24.2204 28.9826C24.9526 28.9826 25.9685 28.5064 26.8253 27.8716ZM26.8253 21.8079C26.7613 19.7109 26.254 18.2851 24.6038 18.2851C23.9039 18.2851 23.1434 18.3162 22.444 18.4753C22.2232 19.2381 22.1903 20.0937 22.1903 20.9188C21.3976 21.2982 20.6025 21.4579 19.778 21.2376C19.2061 20.2829 18.8572 18.9816 18.8572 17.5846C20.6025 16.5698 22.9197 15.8716 25.2998 15.8716C27.2687 15.8716 30.6341 16.5698 30.6341 20.9834V26.726C30.6341 27.4265 30.6658 28.3478 30.7587 29.0471C31.4586 28.9503 32.1268 28.794 32.7922 28.6321C33.1082 28.918 33.3641 29.3637 33.3641 29.9034C32.2842 30.9827 30.6024 31.9363 29.1097 31.9363C28.3809 31.9363 27.6493 31.0155 27.2053 29.7125C25.6514 30.9832 23.8399 31.9023 22.3166 31.9023C19.7146 31.9023 18.1602 30.5053 18.1602 27.9973C18.1602 24.5056 23.0788 22.6006 26.8253 21.8079Z" fill="black"/>
<path d="M40.0983 16.1587C40.224 16.5069 40.4148 17.1735 40.5739 17.8077C42.0327 16.6655 43.6533 15.8716 45.6206 15.8716C48.1915 15.8716 50.3518 17.3966 50.3518 20.8548V26.7277C50.3518 27.5856 50.3818 28.3472 50.447 29.1089C51.272 29.2057 52.2562 29.4271 52.8253 29.6808C52.8253 30.2839 52.7642 31.1729 52.6045 31.5206C51.78 31.4912 49.5879 31.4595 48.5431 31.4595C46.9225 31.4595 45.7174 31.5206 44.6375 31.5206C44.5424 31.2047 44.4484 30.3484 44.4484 29.6808C45.1143 29.5517 45.9077 29.3637 46.4145 29.1394C46.5102 28.4429 46.5436 27.9973 46.5436 27.363V22.4732C46.5436 20.2834 46.1942 18.6662 43.877 18.6662C42.8928 18.6662 41.8447 19.0784 40.8293 19.7109V26.7277C40.8293 27.5856 40.861 28.3472 40.925 29.1089C41.7172 29.2057 42.6063 29.4271 43.1454 29.6808C43.1454 30.2839 43.082 31.1729 42.9562 31.5206C42.1301 31.4912 40.0682 31.4595 38.9883 31.4595C37.1468 31.4595 35.7821 31.5206 34.5742 31.5206C34.4502 31.2047 34.3539 30.3484 34.3539 29.6808C35.243 29.5879 36.2589 29.3637 36.8948 29.1394C36.9883 28.4429 37.02 27.9973 37.02 27.363V19.2381C36.1949 18.9816 35.3381 18.8247 34.5119 18.7307C34.3234 18.1576 34.2594 17.5874 34.3862 17.0455C35.9401 16.4769 37.8128 16.0613 39.6877 15.9039L40.0983 16.1587Z" fill="black"/>
<path d="M60.2239 18.4753C59.5914 18.4753 58.7958 18.6345 58.5438 18.7908C58.067 19.207 57.5902 20.19 57.5902 21.1725C57.5902 23.0469 58.7318 24.5679 60.4153 24.5679C61.1453 24.5679 61.9698 24.3476 62.1923 24.1896C62.6685 23.872 63.2405 22.6647 63.2405 21.5865C63.2405 20.0943 62.0977 18.4753 60.2239 18.4753ZM57.8104 32.028C57.1134 32.7919 56.7017 33.6799 56.7017 34.6646C56.7017 35.9031 57.5902 37.2989 60.3519 37.2989C61.7806 37.2989 63.1453 37.1415 64.0978 36.5373C64.4466 36.3142 64.8277 35.2054 64.8277 34.2858C64.8277 33.0456 63.7779 32.2823 60.9856 32.2823C59.5597 32.2829 58.5438 32.1889 57.8104 32.028ZM59.6203 27.0788C59.4 27.4582 59.3032 27.8721 59.3032 28.2193C59.3032 28.5692 59.336 28.8246 59.4317 28.9186C59.5914 29.1094 61.2732 29.14 62.638 29.14C66.0345 29.14 68.2566 30.7924 68.2566 33.3945C68.2566 37.7123 64.9552 40.0001 59.3683 40.0001C54.7339 40.0001 53.1777 37.492 53.1777 35.6177C53.1777 33.6181 54.765 32.19 56.3217 31.3004C56.0029 30.9527 55.9395 30.5087 55.9395 30.0313C55.9395 29.0794 56.6065 27.9678 57.6553 26.8257C55.4309 26.2514 54.0034 24.6659 54.0034 22.0004C54.0034 19.1418 56.2906 15.9684 60.797 15.9684C62.1294 15.9684 63.241 16.221 64.0984 16.6349C65.0503 15.5873 66.1296 14.7934 67.7797 13.9678C68.6682 14.5414 69.0805 15.4288 69.2396 16.5087C68.2883 16.9843 66.9547 17.4294 65.6862 17.8088C66.479 18.7319 66.8284 19.8735 66.8284 21.0774C66.8284 23.9671 64.6375 27.0799 59.8451 27.0799H59.6203V27.0788Z" fill="black"/>
<path d="M78.4808 27.8716V24.3165C76.5441 24.5373 74.7354 25.0147 74.3866 25.3001C74.0072 25.6166 73.7523 26.4411 73.7523 27.0131C73.7523 28.029 74.45 28.9826 75.8787 28.9826C76.6103 28.9826 77.6245 28.5064 78.4808 27.8716ZM78.4808 21.8079C78.4179 19.7109 77.9111 18.2851 76.2598 18.2851C75.5599 18.2851 74.7983 18.3162 74.1 18.4753C73.8792 19.2381 73.8458 20.0937 73.8458 20.9188C73.0535 21.2982 72.2613 21.4579 71.4334 21.2376C70.8649 20.2829 70.5132 18.9816 70.5132 17.5846C72.2613 16.5698 74.5774 15.8716 76.9569 15.8716C78.9247 15.8716 82.2895 16.5698 82.2895 20.9834V26.726C82.2895 27.4265 82.3212 28.3478 82.4181 29.0471C83.1152 28.9503 83.7817 28.794 84.4476 28.6321C84.767 28.918 85.019 29.3637 85.019 29.9034C83.9408 30.9827 82.2584 31.9363 80.7657 31.9363C80.0357 31.9363 79.307 31.0155 78.8613 29.7125C77.3074 30.9832 75.4982 31.9023 73.9715 31.9023C71.3694 31.9023 69.8145 30.5053 69.8145 27.9973C69.815 24.5056 74.7354 22.6006 78.4808 21.8079Z" fill="black"/>
<path d="M91.6887 16.1586C91.9112 16.6989 92.2283 17.9033 92.388 18.7924C93.4339 17.3002 94.8649 15.9672 96.8622 15.9672C97.9743 15.9672 98.8928 16.1258 99.6556 16.4106C99.6556 18.6973 99.5276 20.4754 99.0548 22.2223C98.2592 22.5077 97.4024 22.5077 96.6708 22.2223C96.5779 21.2376 96.4182 19.7771 96.2268 18.9509C96.0054 18.9187 95.814 18.9187 95.562 18.9187C94.6084 18.9187 93.4979 19.49 92.4197 21.3304V26.7276C92.4197 27.5855 92.4492 28.3472 92.5154 29.1088C93.8813 29.2057 95.434 29.4271 96.2585 29.6808C96.2585 30.2838 96.1979 31.1729 96.0382 31.5206C94.8938 31.4911 92.0692 31.4594 90.6105 31.4594C88.7678 31.4594 87.3708 31.5206 86.1658 31.5206C86.0372 31.2046 85.9438 30.3484 85.9438 29.6808C86.83 29.5879 87.8465 29.3636 88.483 29.1394C88.5787 28.4429 88.6104 27.9972 88.6104 27.363V19.238C87.783 18.9815 86.928 18.8247 86.1018 18.7307C85.9104 18.1576 85.8481 17.5873 85.9732 17.0454C87.5299 16.4769 89.4026 16.0612 91.3076 15.9038L91.6887 16.1586Z" fill="black"/>
<path d="M110.736 26.9183V19.2067C109.847 18.8873 108.767 18.6659 107.75 18.6659C106.925 18.6659 106.102 18.8245 105.817 19.1405C105.086 19.9667 104.481 21.6797 104.481 23.3315C104.481 26.2501 105.53 29.0158 107.371 29.0158C108.196 29.0158 109.499 28.0939 110.736 26.9183ZM107.466 15.9671C108.546 15.9671 109.719 16.2847 110.736 16.7276V10.477C109.847 10.2516 108.959 10.0619 108.07 9.96622C107.91 9.42712 107.847 8.88803 107.941 8.31609C109.879 7.65071 112.197 7.26961 114.354 7.17334L114.671 7.49159C114.578 10.6661 114.545 13.1413 114.545 16.6336V26.7274C114.545 27.4262 114.578 28.347 114.64 29.0469C115.37 28.9501 116.038 28.791 116.67 28.6318C117.022 28.9178 117.242 29.3635 117.242 29.9031C116.163 30.9825 114.48 31.9361 113.02 31.9361C112.132 31.9361 111.371 30.7276 110.991 29.3017C109.591 30.7922 108.005 31.9361 106.261 31.9361C102.48 31.9361 100.607 28.5067 100.607 24.2205C100.608 19.555 103.944 15.9671 107.466 15.9671Z" fill="black"/>
<path d="M73.4448 4.22093C73.2353 3.9712 73.2042 3.53913 73.3797 3.26222L75.1776 0.382138C75.3526 0.10353 75.7524 -0.0595574 76.0701 0.0202876L79.3692 0.841955C79.6875 0.921234 79.9655 1.25307 79.9859 1.57981L80.2226 4.96898C80.2453 5.29516 80.0159 5.66437 79.713 5.78499L76.5639 7.05684C76.2598 7.18199 75.8419 7.0778 75.6307 6.82524L73.4448 4.22093Z" fill="white"/>
<path d="M129.026 3.0459H128.107V36.5672H129.026V3.0459Z" fill="black"/>
</g>
</g>
<defs>
<clipPath id="clip0_1457_26664">
<rect width="208.674" height="40" fill="white"/>
</clipPath>
<clipPath id="clip1_1457_26664">
<rect width="208.674" height="40" fill="white"/>
</clipPath>
</defs>
</svg>
