<svg xmlns="http://www.w3.org/2000/svg" xml:space="preserve" id="a21618e7-464d-43d5-bf73-6431ba67cee9" x="0" y="0" style="enable-background:new 0 0 633.3 294.5" version="1.1" viewBox="0 0 633.3 294.5"><style>.st0{fill:#0c2340}</style><path d="M115.2 5.2c3.3 0 4.9 1.2 4.9 3.3 0 2.7-4.5 3.9-13.4 3.6-9-.3-13.4 1.7-13.4 5.8 0 3 1.2 7.6 3.6 13.9 3.3 8.4 5.1 13.3 5.4 14.8 14.6 40.6 26.6 71.6 35.8 92.8 27.8-70.8 41.7-111.1 41.7-121 0-3.6-3.5-5.3-10.4-5.3-16.2 0-21.4-.5-21.4-3.6s2.1-4.2 5.7-4.2h62.7c2.7 0 4.1 1.2 4.1 3.3s-.6 3.4-1.8 3.8-5.4.7-12.5.7c-8.1 0-11.9-.7-14.1 1.6-1.2 1.4-2.2 2.9-2.9 4.6L183.8 35c-2.4 7.2-7.8 21.7-16.1 43.5-.6 1.8-7.2 20.2-19.7 55.1-13.3 37.4-24.6 68.1-33.7 92.1-5.7 16.4-9.4 26-13.5 35.1-9.9 21.9-23.3 33.2-40 33.8-9.5.4-17.3-2.2-23.4-7.6-6-5.5-9.2-12.8-9.6-22.1-.5-14.6 10.5-22.8 22.8-23.2 5.1-.2 10.1 1.7 13.7 5.2 1.6 1.4 4.3 5.5 8.1 12.2 2.5 3.6 6.2 3.8 9.8 3.7 6-.2 10.4-4.9 15.6-15.1 1.2-2.3 2.4-5.1 3.8-8.3 2.8-7.5 5.9-16 9.2-25.6-2.4-4.8-7-15.4-13.9-31.8-9-22.7-20.9-52.4-35.9-89.2-3.6-9-11.7-28.5-24.2-58.7-4.2-10.6-7.8-16.9-10.8-19S16.2 12 5.4 11.7c-3.6 0-5.4-1-5.4-3.1s1.8-3.3 5.4-3.3l109.8-.1z" class="st0"/><path d="M328.5 104.8c0-37-2.5-62.4-7.6-76.2-5.6-15.2-14.7-22.9-27.1-22.9-11.6 0-20.6 8-27.2 24s-9.8 38-9.8 66.1c0 39.1 3.9 66.9 11.6 83.3 6.2 13.1 15 19.7 26.3 19.7 14 0 23.2-8.4 27.6-25.1 4.1-15.6 6.2-38.6 6.2-68.9m67.6-.4c0 32-12.5 57.8-37.6 77.5-19.7 15.5-41.4 23.3-65 23.3-28.1 0-52.3-10.1-72.8-30.2S190 131 190 103.5c0-28.7 10.2-53.1 30.7-73.3S265.9 0 294.9 0c27.8 0 51.6 10.2 71.5 30.7 19.8 20.4 29.7 45 29.7 73.7m21.3-77.5v116.8c0 21 3.6 35.3 10.7 43.1 11.3 12.6 26.7 18.9 46.2 18.9 21.9 0 42.2-10 60.9-30 .3 2.4.5 4.8.5 7.2v19.3c0 2.4.6 3.6 1.8 3.6 1.8-.1 3.5-.7 4.9-1.8 7.5-5.1 16.4-8.6 26.9-10.5 10.5-2 29.3-3.4 56.5-4.2 5.1-.3 7.6-1.6 7.6-4s-2-3.6-5.8-3.6c-13.4 0-21.5-.3-24.2-.9-3.9-.9-6.1-2.6-6.7-5.1-.6-2.5-.9-10.8-.9-24.9V5.5H511c-4.6.4-5.3 1.1-5.3 3s.9 3.2 5 3.2h13.2c6.8 0 10.4 2.8 11 8.5.6 4.5.9 17.7.9 39.5V137c0 13.5-.2 21.9-.7 25.4-.6 3.7-2.2 7.3-4.7 10.1-8.7 11.1-17.9 16.6-27.8 16.6-8.7 0-15-3.9-19-11.7-4-7.8-4.3-26.1-4.3-57.3V9.9l-.1-4.3H393c-4.6.4-5.3 1.1-5.3 3s.9 3.2 5 3.2h13.2c6.8 0 10.8 2.9 11.5 8.6v6.5z" class="st0"/></svg>